<?xml version="1.0"?>
<svg width="1144.4" height="798.9" xmlns="http://www.w3.org/2000/svg" xmlns:svg="http://www.w3.org/2000/svg" xmlns:se="http://svg-edit.googlecode.com" xmlns:xlink="http://www.w3.org/1999/xlink" data-name="Layer 1">
 <defs>
  <linearGradient id="e2e6f350-b5ca-4a1b-97fa-8ad82b1378fe" x1="0.277748" x2="0.277748" y1="0.999976" y2="-0.000024">
   <stop offset="0" stop-color="gray" stop-opacity="0.25"/>
   <stop offset="0.54" stop-color="gray" stop-opacity="0.12"/>
   <stop offset="1" stop-color="gray" stop-opacity="0.1"/>
  </linearGradient>
  <linearGradient id="e032e4db-4b5a-4772-82a4-e151341a8119" x1="511.77" x2="511.77" xlink:href="#e2e6f350-b5ca-4a1b-97fa-8ad82b1378fe" y1="675.55" y2="284.01"/>
  <linearGradient id="796bd2e3-6922-48c9-8d61-1a37047129f5" x1="518.3" x2="518.3" xlink:href="#e2e6f350-b5ca-4a1b-97fa-8ad82b1378fe" y1="270.01" y2="195.01"/>
  <linearGradient id="fd3c50c2-1925-4067-85c5-f26d2d595195" x1="1016.25" x2="1016.25" xlink:href="#e2e6f350-b5ca-4a1b-97fa-8ad82b1378fe" y1="529.56" y2="466.66"/>
  <linearGradient id="1c0a27d4-1f07-420a-99e3-d67bda5d7f31" x1="1039.34" x2="1039.34" xlink:href="#e2e6f350-b5ca-4a1b-97fa-8ad82b1378fe" y1="567.37" y2="504.47"/>
 </defs>
 <title>goal</title>
 <g class="layer">
  <title>Layer 1</title>
  <path d="m0.390001,69.190001c3.72,31.61 29.81,56.64 36,87.86a85.19,85.19 0 0 1 1.42,12.4c0.89,17.93 -2.66,36.23 -0.83,54.19c3.41,33.68 23.88,60 49.87,82.81c19.66,17.21 42.48,32.35 63.47,47c53.44,37.33 103.56,84.46 125.51,145.84c14.63,40.93 15.75,85.41 26.49,127.53s35.2,85.22 76.54,98.65c44.37,14.42 93.26,-9.62 138.92,-0.12c49,10.2 83.75,56.51 132.1,69.59c61.43,16.62 122.65,-24.22 185.71,-32.73c30.28,-4.09 61.1,-0.62 91.54,-3.24a230.08,230.08 0 0 0 96.07,-30.52c10,-5.87 20.11,-13.08 24.76,-23.74c4,-9.21 3.39,-19.71 2.16,-29.68c-4.6,-37 -16.24,-77.22 2.07,-109.74c16.89,-30 57.82,-51.46 51.75,-85.33c-3.65,-20.39 -23.69,-33.12 -42.27,-42.25c-38.32,-18.83 -79.14,-33.57 -113.39,-59c-24.5,-18.22 -45.6,-43.64 -54.6,-72.23a96.31,96.31 0 0 1 -4.48,-35.44c1.26,-18.9 7.8,-40.12 -3.6,-55.25c-4.94,-6.56 -12.51,-10.59 -20.12,-13.67c-28.7,-11.6 -60.58,-12.27 -90.42,-20.51a124.73,124.73 0 0 1 -29.26,-12.16c-18.2,-10.54 -32.85,-26.07 -36.39,-46.34c-2.07,-11.88 -0.23,-24.85 -6.16,-35.35c-10,-17.8 -29.77,-25.24 -51.85,-27.66c-27.33,-3 -58.28,1.69 -79,4l-2.07,0.22c-26.61,2.77 -53,-3.12 -78.93,-12c-28,-9.51 -55.37,-22.45 -82,-31.65q-3.75,-1.3 -7.48,-2.49a383,383 0 0 0 -59.52,-13.85a389.12,389.12 0 0 0 -86,-3.32a381.53,381.53 0 0 0 -43.38,5.64q-6.32,1.2 -12.62,2.57c-24.42,5.23 -48.71,11.62 -73.62,12c-1.79,0 -3.59,0 -5.38,0c-29.71,-0.51 -60.09,-8.06 -88.28,1.06c-12.82,4.17 -25.11,12.37 -30.27,24.81c-2.87,6.93 -3.33,14.66 -2.46,22.1z" fill="#232526" id="svg_1"/>
  <path d="m65.61,220l25.67,0a34,34 0 0 1 22.34,-30a24,24 0 1 1 23.15,0a34,34 0 0 1 22.34,30l0.22,0a34,34 0 0 1 22.28,-29a24,24 0 1 1 35.17,-25.41a33.93,33.93 0 0 1 9.83,-5.59a24,24 0 1 1 23.15,0a34,34 0 0 1 22.42,32l0,28l11,0l0,-22a34,34 0 0 1 22.42,-32a24,24 0 1 1 23.15,0a34.1,34.1 0 0 1 19.6,18.44a34.09,34.09 0 0 1 16.28,-12.44a24,24 0 1 1 23.15,0a34.11,34.11 0 0 1 17.42,14.23l0,-4.23a34,34 0 0 1 22.42,-32a24,24 0 1 1 23.15,0a34,34 0 0 1 22.42,32l0,38l12,0a34.09,34.09 0 0 1 19.39,-18a24,24 0 1 1 23.15,0a33.87,33.87 0 0 1 6.76,3.35a34,34 0 0 1 22.14,-27.35a24,24 0 1 1 23.15,0a34.07,34.07 0 0 1 21,22.4a34,34 0 0 1 13.82,-9.4a24,24 0 1 1 23.15,0a33.93,33.93 0 0 1 10.08,5.8a34.1,34.1 0 0 1 19.8,-18.8a24,24 0 1 1 23.15,0a34,34 0 0 1 22.42,32l0,10l60.4,0a124.73,124.73 0 0 0 29.25,12.15c29.84,8.24 61.72,8.91 90.42,20.51c7.61,3.08 15.18,7.11 20.12,13.67c11.4,15.13 4.86,36.35 3.6,55.25a96.31,96.31 0 0 0 4.45,35.42l-806.79,0c-26,-22.76 -46.46,-49.13 -49.87,-82.81c-1.78,-17.95 1.72,-36.25 0.83,-54.19z" id="svg_2" opacity="0.2" transform="translate(-27.8 -50.55)"/>
  <polyline fill="none" id="svg_3" points="993.9 76.97 993.9 464.96 973.9 451.96 973.9 76.97 961.9 76.97 956.9 438.96 937.9 424.96 950.9 71.97" stroke="#e0e0e0" stroke-miterlimit="10"/>
  <line fill="none" id="svg_4" stroke="#e0e0e0" stroke-miterlimit="10" x1="1018.91" x2="937.91" y1="104.97" y2="109.47"/>
  <line fill="none" id="svg_5" stroke="#e0e0e0" stroke-miterlimit="10" x1="1013.91" x2="937.91" y1="124.97" y2="127.97"/>
  <line fill="none" id="svg_6" stroke="#e0e0e0" stroke-miterlimit="10" x1="1013.91" x2="937.91" y1="148.97" y2="150.97"/>
  <line fill="none" id="svg_7" stroke="#e0e0e0" stroke-miterlimit="10" x1="1013.91" x2="937.91" y1="170.97" y2="173.97"/>
  <line fill="none" id="svg_8" stroke="#e0e0e0" stroke-miterlimit="10" x1="1013.91" x2="934.91" y1="195.97" y2="195.97"/>
  <line fill="none" id="svg_9" stroke="#e0e0e0" stroke-miterlimit="10" x1="1013.91" x2="932.91" y1="220.97" y2="217.97"/>
  <line fill="none" id="svg_10" stroke="#e0e0e0" stroke-miterlimit="10" x1="1013.91" x2="932.91" y1="243.97" y2="239.97"/>
  <line fill="none" id="svg_11" stroke="#e0e0e0" stroke-miterlimit="10" x1="1013.91" x2="932.91" y1="268.97" y2="262.97"/>
  <line fill="none" id="svg_12" stroke="#e0e0e0" stroke-miterlimit="10" x1="1015.91" x2="929.91" y1="290.97" y2="282.97"/>
  <line fill="none" id="svg_13" stroke="#e0e0e0" stroke-miterlimit="10" x1="1015.91" x2="929.91" y1="315.97" y2="302.97"/>
  <line fill="none" id="svg_14" stroke="#e0e0e0" stroke-miterlimit="10" x1="1015.91" x2="926.91" y1="344.97" y2="328.97"/>
  <line fill="none" id="svg_15" stroke="#e0e0e0" stroke-miterlimit="10" x1="1015.91" x2="926.91" y1="377.97" y2="351.97"/>
  <line fill="none" id="svg_16" stroke="#e0e0e0" stroke-miterlimit="10" x1="1017.91" x2="923.91" y1="411.97" y2="374.97"/>
  <line fill="none" id="svg_17" stroke="#e0e0e0" stroke-miterlimit="10" x1="1017.91" x2="923.91" y1="442.97" y2="396.97"/>
  <polyline fill="none" id="svg_18" points="915.9 75.97 899.9 416.96 878.9 416.96 891.9 75.97 868.9 75.97 853.9 416.96 830.9 416.96 843.9 75.97 815.9 75.97 805.9 416.96 780.9 416.96 791.9 78.97 765.9 78.97 759.9 416.96 736.9 416.96 743.9 75.97 720.9 75.97 715.9 416.96 693.9 416.96 698.9 75.97 672.9 75.97 672.9 416.96 646.9 416.96 646.9 75.97 622.9 75.97 626.9 416.96 605.9 416.96 599.9 75.97 575.9 75.97 583.9 416.96 562.9 416.96 552.9 75.97 531.9 75.97 539.9 416.96 520.9 416.96 505.9 75.97 485.9 75.97 501.9 416.96 481.9 416.96 459.9 75.97 435.9 75.97 463.9 416.96 444.9 416.96 417.9 75.97 398.9 75.97 426.9 416.96 405.9 416.96 378.9 71.97 359.9 71.97 390.9 416.96 370.9 416.96 338.9 71.97" stroke="#e0e0e0" stroke-miterlimit="10"/>
  <polyline fill="none" id="svg_19" points="293.9 76.97 323.9 422.96 308.9 434.96 285.9 76.97 269.9 76.97 285.9 447.96 262.9 462.96 253.91 71.97" stroke="#e0e0e0" stroke-miterlimit="10"/>
  <line fill="none" id="svg_20" stroke="#e0e0e0" stroke-miterlimit="10" x1="231.91" x2="323.91" y1="115.97" y2="115.97"/>
  <line fill="none" id="svg_21" stroke="#e0e0e0" stroke-miterlimit="10" x1="231.91" x2="323.91" y1="140.97" y2="140.97"/>
  <line fill="none" id="svg_22" stroke="#e0e0e0" stroke-miterlimit="10" x1="231.91" x2="323.91" y1="168.97" y2="165.97"/>
  <line fill="none" id="svg_23" stroke="#e0e0e0" stroke-miterlimit="10" x1="231.91" x2="327.91" y1="192.97" y2="187.97"/>
  <line fill="none" id="svg_24" stroke="#e0e0e0" stroke-miterlimit="10" x1="231.91" x2="327.91" y1="219.97" y2="215.97"/>
  <line fill="none" id="svg_25" stroke="#e0e0e0" stroke-miterlimit="10" x1="231.91" x2="331.91" y1="248.97" y2="243.97"/>
  <line fill="none" id="svg_26" stroke="#e0e0e0" stroke-miterlimit="10" x1="231.91" x2="331.91" y1="276.97" y2="266.97"/>
  <line fill="none" id="svg_27" stroke="#e0e0e0" stroke-miterlimit="10" x1="231.91" x2="331.91" y1="308.97" y2="284.97"/>
  <line fill="none" id="svg_28" stroke="#e0e0e0" stroke-miterlimit="10" x1="231.91" x2="335.91" y1="336.97" y2="301.97"/>
  <line fill="none" id="svg_29" stroke="#e0e0e0" stroke-miterlimit="10" x1="231.91" x2="335.91" y1="365.97" y2="325.97"/>
  <line fill="none" id="svg_30" stroke="#e0e0e0" stroke-miterlimit="10" x1="228.91" x2="332.44" y1="393.97" y2="350.52"/>
  <line fill="none" id="svg_31" stroke="#e0e0e0" stroke-miterlimit="10" x1="228.91" x2="335.91" y1="425.97" y2="371.97"/>
  <line fill="none" id="svg_32" stroke="#e0e0e0" stroke-miterlimit="10" x1="228.91" x2="338.91" y1="454.97" y2="393.97"/>
  <line fill="none" id="svg_33" stroke="#e0e0e0" stroke-miterlimit="10" x1="937.91" x2="323.91" y1="104.97" y2="109.97"/>
  <line fill="none" id="svg_34" stroke="#e0e0e0" stroke-miterlimit="10" x1="937.41" x2="323.41" y1="122.97" y2="127.97"/>
  <line fill="none" id="svg_35" stroke="#e0e0e0" stroke-miterlimit="10" x1="936.91" x2="322.91" y1="140.97" y2="145.97"/>
  <line fill="none" id="svg_36" stroke="#e0e0e0" stroke-miterlimit="10" x1="936.41" x2="322.41" y1="158.97" y2="163.97"/>
  <line fill="none" id="svg_37" stroke="#e0e0e0" stroke-miterlimit="10" x1="935.91" x2="321.91" y1="176.97" y2="181.97"/>
  <line fill="none" id="svg_38" stroke="#e0e0e0" stroke-miterlimit="10" x1="935.41" x2="329.41" y1="194.97" y2="199.97"/>
  <line fill="none" id="svg_39" stroke="#e0e0e0" stroke-miterlimit="10" x1="934.91" x2="328.91" y1="212.97" y2="217.97"/>
  <line fill="none" id="svg_40" stroke="#e0e0e0" stroke-miterlimit="10" x1="934.41" x2="328.41" y1="230.97" y2="235.97"/>
  <line fill="none" id="svg_41" stroke="#e0e0e0" stroke-miterlimit="10" x1="933.91" x2="327.91" y1="248.97" y2="253.97"/>
  <line fill="none" id="svg_42" stroke="#e0e0e0" stroke-miterlimit="10" x1="933.41" x2="333.41" y1="266.97" y2="271.97"/>
  <line fill="none" id="svg_43" stroke="#e0e0e0" stroke-miterlimit="10" x1="932.91" x2="332.91" y1="284.97" y2="289.97"/>
  <line fill="none" id="svg_44" stroke="#e0e0e0" stroke-miterlimit="10" x1="932.41" x2="332.41" y1="302.97" y2="307.97"/>
  <line fill="none" id="svg_45" stroke="#e0e0e0" stroke-miterlimit="10" x1="931.91" x2="335.91" y1="320.97" y2="325.97"/>
  <line fill="none" id="svg_46" stroke="#e0e0e0" stroke-miterlimit="10" x1="931.41" x2="335.41" y1="338.97" y2="343.97"/>
  <line fill="none" id="svg_47" stroke="#e0e0e0" stroke-miterlimit="10" x1="930.91" x2="337.91" y1="356.97" y2="361.97"/>
  <line fill="none" id="svg_48" stroke="#e0e0e0" stroke-miterlimit="10" x1="930.41" x2="337.41" y1="374.97" y2="379.97"/>
  <line fill="none" id="svg_49" stroke="#e0e0e0" stroke-miterlimit="10" x1="929.91" x2="336.91" y1="392.97" y2="397.97"/>
  <polyline fill="none" id="svg_50" points="1017.9 481.96 926.9 416.96 335.9 416.96 231.91 481.96" stroke="#e0e0e0" stroke-miterlimit="10" stroke-width="3"/>
  <path d="m1038.550001,472.630001s2.31,-68.26 39.23,-106.81a103.48,103.48 0 0 0 28.38,-59a174,174 0 0 0 0.87,-31.81" fill="none" id="svg_59" stroke="#535461" stroke-miterlimit="10" stroke-width="2"/>
  <path d="m1138.960001,300.360001c-6.26,5 -33.52,8.25 -33.52,8.25s9.07,-25.91 15.33,-30.93a14.54,14.54 0 1 1 18.19,22.68z" fill="#888888" id="svg_61"/>
  <path d="m1114.040001,372.170001c-7.94,1.17 -33.1,-9.8 -33.1,-9.8s20.91,-17.79 28.85,-19a14.54,14.54 0 0 1 4.25,28.76l0,0.04z" fill="#888888" id="svg_62"/>
  <path d="m1082.950001,422.250001c-7.63,2.5 -34.28,-4.07 -34.28,-4.07s17.6,-21.06 25.23,-23.57a14.54,14.54 0 1 1 9.05,27.63l0,0.01z" fill="#888888" id="svg_63"/>
  <path d="m1075.970001,300.450001c3.71,7.12 27.35,21.07 27.35,21.07s2.15,-27.36 -1.55,-34.49a14.54,14.54 0 0 0 -25.8,13.42z" fill="#888888" id="svg_64"/>
  <path d="m1040.360001,359.510001c5.67,5.69 32.4,11.92 32.4,11.92s-6.13,-26.75 -11.8,-32.44a14.54,14.54 0 0 0 -20.6,20.52z" fill="#888888" id="svg_65"/>
  <path d="m245.2,158.35c0.49,-19.35 13.89,-36.35 32.8,-40.5l0.54,-0.11a11.42,11.42 0 0 1 2.32,-0.22l748.4,0a32,32 0 0 1 27.57,15.32l0.19,0.33a13.12,13.12 0 0 1 1.72,6.33l6.95,393l-24,0l-8,-384s0,-11 -10,-12c-1.53,-0.15 -20.09,-0.26 -50.41,-0.33l-17.58,332.34l-10,0l19.55,-332.35c-133.3,-0.26 -459.57,0.07 -611,0.25l19.42,330.1l-10,0l-17.44,-330.09l-57.64,0.07a24.21,24.21 0 0 0 -20.89,12l-8,384l-24,0l9.5,-374.14z" fill="#e0e0e0" id="svg_67" transform="translate(-27.8 -50.55)"/>
  <path d="m235.57,540.6s-3.24,-52.86 22.43,-85.34a80.24,80.24 0 0 0 17.57,-47.62a135,135 0 0 0 -1.68,-24.64" fill="none" id="svg_68" stroke="#535461" stroke-miterlimit="10" stroke-width="2" transform="translate(-27.8 -50.55)"/>
  <path d="m262.150001,311.910001c-1.39,6.07 -16.41,21.15 -16.41,21.15s-7,-20.12 -5.57,-26.18a11.27,11.27 0 1 1 22,5l-0.02,0.03z" fill="#888888" id="svg_69"/>
  <path d="m272.610001,349.690001c-4.47,4.34 -25.27,8.84 -25.27,8.84s5.09,-20.67 9.56,-25a11.27,11.27 0 1 1 15.71,16.17l0,-0.01z" fill="#888888" id="svg_70"/>
  <path d="m258.660001,406.950001c-6,1.49 -26.27,-5.13 -26.27,-5.13s14.81,-15.27 20.87,-16.76a11.27,11.27 0 1 1 5.4,21.89z" fill="#888888" id="svg_71"/>
  <path d="m238.340001,447.900001c-5.71,2.49 -26.76,-0.62 -26.76,-0.62s12,-17.56 17.74,-20a11.27,11.27 0 1 1 9,20.66l0.02,-0.04z" fill="#888888" id="svg_72"/>
  <path d="m224.000001,354.450001c3.38,5.23 22.66,14.25 22.66,14.25s-0.35,-21.28 -3.74,-26.51a11.27,11.27 0 1 0 -18.92,12.26z" fill="#888888" id="svg_73"/>
  <path d="m200.850001,402.600001c4.79,4 25.89,6.82 25.89,6.82s-6.7,-20.2 -11.5,-24.18a11.27,11.27 0 0 0 -14.39,17.36z" fill="#888888" id="svg_74"/>
  <path d="m184.780001,452.530001c4.05,4.73 24.36,11.1 24.36,11.1s-3.19,-21 -7.25,-25.77a11.27,11.27 0 0 0 -17.12,14.68l0.01,-0.01z" fill="#888888" id="svg_75"/>
  <g id="svg_83" opacity="0.1">
   <path d="m410,337.35c-0.12,-0.15 -0.18,-0.25 -0.18,-0.25l0.18,0.25z" fill="url(#e2e6f350-b5ca-4a1b-97fa-8ad82b1378fe)" id="svg_84" transform="translate(-27.8 -50.55)"/>
  </g>
  <path d="m575.34,351c-0.19,6.37 3.76,8.76 3.76,8.76l36.9,32.68c14.24,5.16 16,32.23 16,32.23c1.4,2.5 2,6.84 2,12c-0.17,16 -4.69,38.3 -4.69,38.3l0.13,0.21l-0.13,0.65l0.13,0.21l-0.13,0.65a39.53,39.53 0 0 0 2.29,3.31c-4,8.19 -11.45,21.37 -14.67,24.18c-4.45,3.87 -13.35,32.66 -13.35,32.66l0.29,-0.07l-0.29,0.93l0.19,0c-2.16,4.17 -4.36,9.55 -4.83,14.86a45.06,45.06 0 0 1 -2.15,10.23a20.15,20.15 0 0 0 -0.33,11.93a51.64,51.64 0 0 1 1.74,9.59a60,60 0 0 0 4.55,18.15c4.07,9.67 9.46,22.88 9.74,25.54c0.15,1.44 0.5,3.56 0.9,5.75l-0.23,0.06l-9.57,21.7s-2.67,6 -8,6a3.67,3.67 0 0 0 -3.67,4.09a3.71,3.71 0 0 0 0.23,1.78l0,0l0,0.06c0,0.1 0.09,0.2 0.13,0.3l0.09,0.17c0.05,0.1 0.11,0.19 0.18,0.29l0.12,0.17l0.22,0.27l0.15,0.17l0.26,0.26l0.18,0.17l0.3,0.24l0.22,0.16l0.35,0.22l0.26,0.16l0.39,0.2l0.3,0.15l0.43,0.18l0.34,0.14l0.48,0.16l0.38,0.12l0.54,0.13l0.43,0.1l0.59,0.1l0.47,0.08l0.65,0.07l0.51,0.06l0.72,0l0.54,0l1.37,0l0.95,0l0.53,0q0.77,0 1.59,-0.13c17.36,-1.72 30.26,-15 30.26,-15l0,-0.25l0,-0.25l0,0l0,-0.25l0.06,-0.07s-1.12,-17.29 -7.47,-21.2a53.23,53.23 0 0 1 -1,-9.75c0,-12 3.56,-24.07 -6.23,-43.84c0,0 -0.45,-5.16 3.12,-12.89a128,128 0 0 1 6.94,-12.06l0.44,-0.05l-0.71,0.94s11.57,-0.86 12.46,-8.6a9.37,9.37 0 0 1 0.45,-1.89c2.68,-7.78 15.62,-18.81 21.36,-19.6c6.23,-0.86 18.69,13.75 23.59,24.07c0.28,0.59 0.57,1.15 0.86,1.66c4.78,8.41 10.71,6.51 10.71,6.51c-0.21,-0.25 -0.39,-0.49 -0.58,-0.74a3.91,3.91 0 0 0 0.58,-0.12a19.81,19.81 0 0 1 -1.45,-2c4.45,4.82 9.18,9.26 11.24,11.85c4.45,5.59 2.23,9.45 2.23,11.17c0,7.75 -10.24,30.51 -7.57,43c1.32,6.17 -0.19,13.39 -2.06,19.11l-0.39,0c-7.57,2.86 -8.45,13.12 -8.39,18.28c0,0.16 0,0.32 0,0.47l0,0c0,0.26 0,0.51 0,0.75l0,0.16q0,0.29 0,0.56l0,0.13c0,0.2 0,0.39 0,0.56l0,0c0,0.18 0,0.35 0,0.49l0,0.06l0,0.3l0,0.08l0,0.16l0,0.11s21.36,9.45 39.61,12c0.64,0.09 1.25,0.16 1.84,0.21l0.54,0l1.15,0.07l1.56,0l0.5,0c0.35,0 0.68,0 1,-0.08l0.32,0q0.62,-0.08 1.17,-0.2l0.24,-0.06c0.28,-0.07 0.54,-0.13 0.79,-0.21l0.33,-0.11l0.59,-0.23l0.3,-0.14c0.18,-0.09 0.35,-0.18 0.52,-0.28l0.27,-0.21a5.84,5.84 0 0 0 0.58,-0.43l0,0a5,5 0 0 0 0.51,-0.51l0.13,-0.16a4.54,4.54 0 0 0 0.28,-0.38l0.12,-0.2q0.11,-0.19 0.19,-0.38l0.09,-0.2a4.28,4.28 0 0 0 0.14,-0.44l0,-0.15a4.43,4.43 0 0 0 0.09,-0.59s0,-0.07 0,-0.11a4.65,4.65 0 0 0 0,-0.48c0,-0.06 0,-0.13 0,-0.19l0,0c0.26,-2.64 -1.83,-5.27 -3.92,-4.87c-4.45,0.86 -10.24,-4.3 -10.24,-4.3l-12.17,-19.88c-0.19,-4.65 0.33,-10.56 3.27,-15.36c5.79,-9.45 12.91,-29.65 12.91,-29.65s-0.89,-12.46 2.67,-18.48s0,-15.47 0,-15.47l-10.89,-21c1.25,0 2,0 2,0l-0.39,-0.86l0.39,0s-13.35,-29.65 -18.69,-33.09c-3.81,-2.45 -9.19,-16.25 -12,-24c1.12,-0.59 1.74,-1 1.74,-1s3.12,-37.39 3.12,-61s16,-33.09 16,-33.09l37.07,-21.94c9.79,-3.87 11.13,-13.75 11.13,-13.75l-0.11,-0.28c0.08,-0.37 0.11,-0.58 0.11,-0.58l-0.11,-0.28c0.08,-0.37 0.11,-0.58 0.11,-0.58l-17.8,-45.55c0,0.14 -0.11,0.26 -0.16,0.39c-1.26,-7.85 -5.15,-20.14 -17.2,-21c-17.8,-1.29 -24,7.74 -20.47,8.6s18.69,6.88 18.69,6.88l6,9.67c-0.39,-0.13 -0.61,-0.22 -0.61,-0.22a2.1,2.1 0 0 1 0.87,0.63l0.4,0.64c-0.78,-0.22 -1.26,-0.41 -1.26,-0.41a1.65,1.65 0 0 1 0.31,0.17a1.91,1.91 0 0 1 0.25,0.16a2.87,2.87 0 0 1 0.23,0.23a3.38,3.38 0 0 1 0.23,0.25c0.08,0.1 0.15,0.21 0.23,0.32l0.12,0.18a14.23,14.23 0 0 1 -1.36,-0.44c4.66,1.5 6.61,29.77 7,37l-23.05,10.27s-23.14,0 -32.93,5.59c-8.59,4.9 -12.73,0.87 -13.61,-0.19q0.9,1.15 1.59,2.22l0,0l-0.25,-0.17l-0.23,-0.16l-0.19,-0.15l-0.21,-0.18l-0.07,-0.06a36.25,36.25 0 0 1 -3.94,-12.16a20.27,20.27 0 0 0 -0.32,-16.4a5,5 0 0 0 1.22,0.63a18.82,18.82 0 0 1 -2,-6c-0.22,-2.35 0.45,-4.85 -0.55,-7a5.39,5.39 0 0 0 -0.36,-0.63c0,-0.07 0,-0.15 -0.08,-0.23c-1,-2.18 -3.45,-3.38 -5,-5.28c-1,-1.28 -1.57,-2.84 -2.53,-4.16a9.24,9.24 0 0 0 -10.57,-2.94c-1.46,0.59 -2.82,1.58 -4.4,1.61a9.89,9.89 0 0 1 -2.41,-0.42a19,19 0 0 0 -14.2,2.66a25.7,25.7 0 0 0 -9.32,11a22,22 0 0 0 -2.08,7a62.28,62.28 0 0 0 0.12,7.65c0.09,4.19 -0.53,8.59 1.26,12.4c0.11,0.24 0.25,0.45 0.37,0.68c0,0.06 0,0.12 0.07,0.18c1.7,3.63 5.26,6 8.67,8.29l4.41,2.91l0.5,0.33a24.14,24.14 0 0 0 -3.8,-0.08c-6.68,0.43 -20,-6 -20,-6l-13.9,-12.58l6.78,-27.82l-0.26,0.19l0.26,-1.05l-0.26,0.19l0.26,-1.05c-0.13,0.1 -0.25,0.19 -0.38,0.28l7.05,-11.46s15.13,-6 18.69,-6.88s-2.67,-9.88 -20.47,-8.6c-13.1,0.95 -16.56,15.39 -17.47,23c-0.77,-0.85 -1.22,-1.47 -1.22,-1.47l-12.48,29.52a21.06,21.06 0 0 0 -2,8.86c0.02,0.29 0.02,0.58 0.03,0.84zm100.86,15l0.36,0.54l0,0l-0.36,-0.54zm-35.67,0.12a5.92,5.92 0 0 0 2.57,-1.7a22.2,22.2 0 0 0 3.44,1a14.36,14.36 0 0 1 -1.33,3.13c-0.17,-0.67 -0.25,-1.08 -0.25,-1.08a42.21,42.21 0 0 0 -4.43,-1.36l0,0.01zm-7.53,187.1c1,-1.61 2,-3.18 3,-4.66c-0.86,1.58 -2,3.3 -3,4.66z" fill="url(#e032e4db-4b5a-4772-82a4-e151341a8119)" id="svg_85" transform="translate(-27.8 -50.55)"/>
  <path d="m696.080001,484.780001l12.75,25.5s3.4,9.35 0,15.3s-2.55,18.28 -2.55,18.28s-6.8,20 -12.33,29.33s-2.13,23 -2.13,23l-22.1,2.55s8.5,-16.58 6,-28.91s7.23,-34.84 7.23,-42.51c0,-1.7 2.13,-5.53 -2.13,-11.05s-20.4,-19.55 -20,-27.63l35.26,-3.86z" fill="#f7bbc3" id="svg_86"/>
  <path d="m611.24,529.38s-8.16,11.3 -9.11,22.3a46,46 0 0 1 -2,10.11a20.6,20.6 0 0 0 -0.32,11.8a52.73,52.73 0 0 1 1.66,9.49a61.12,61.12 0 0 0 4.34,18c3.89,9.57 9,22.63 9.3,25.26c0.43,4.25 2.55,14.45 2.55,14.45l17,6.38s-5.1,-12.33 -5.1,-24.23s3.4,-23.8 -6,-43.36c0,0 -0.43,-5.1 3,-12.75s16.58,-27.63 16.58,-27.63l-31.9,-9.82z" fill="#f7bbc3" id="svg_87" transform="translate(-27.8 -50.55)"/>
  <path d="m638.72,544.54c1.4,1.52 -5.81,11.2 -5.81,11.2s11.05,-0.85 11.9,-8.5a9.54,9.54 0 0 1 0.43,-1.87c2.56,-7.69 14.92,-18.6 20.4,-19.38c6,-0.85 17.85,13.6 22.53,23.8c0.27,0.59 0.54,1.13 0.82,1.64c4.57,8.32 10.23,6.44 10.23,6.44c-3,-3.7 -3.62,-6.63 -2.68,-9c3.72,-9.17 31.58,-8.9 31.58,-8.9s-12.75,-29.33 -17.85,-32.73s-13.18,-28.91 -13.18,-28.91s-60.79,-6.8 -61.21,-3.83s-12.33,26.36 -16.58,30.18s-12.74,32.32 -12.74,32.32c14.45,-4.25 30.39,6.16 32.09,7.44l0.07,0.1z" id="svg_88" opacity="0.1" transform="translate(-27.8 -50.55)"/>
  <path d="m610.920001,493.140001c1.4,1.52 -5.81,11.2 -5.81,11.2s11.05,-0.85 11.9,-8.5a9.54,9.54 0 0 1 0.43,-1.87c2.56,-7.69 14.92,-18.6 20.4,-19.38c6,-0.85 17.85,13.6 22.53,23.8c0.27,0.59 0.54,1.13 0.82,1.64c4.57,8.32 10.23,6.44 10.23,6.44c-3,-3.7 -3.62,-6.63 -2.68,-9c3.72,-9.17 31.58,-8.9 31.58,-8.9s-12.75,-29.33 -17.85,-32.73s-13.18,-28.91 -13.18,-28.91s-60.79,-6.8 -61.21,-3.83s-12.33,26.36 -16.58,30.18s-12.75,32.31 -12.75,32.31c14.45,-4.25 30.39,6.16 32.09,7.44l0.08,0.11z" fill="#565171" id="svg_89"/>
  <path d="m718.57,638.84l11.69,19.77s5.53,5.1 9.78,4.25s8.5,11.9 -8.93,9.35s-37.83,-11.9 -37.83,-11.9s-1.91,-17.22 7.86,-21l17.43,-0.47z" id="svg_90" opacity="0.1" transform="translate(-27.8 -50.55)"/>
  <path d="m615.7,632l-9.14,21.47s-2.55,6 -7.65,6s-6.8,10.63 9.78,8.93s28.91,-14.88 28.91,-14.88s-1.28,-20.4 -8.93,-21.68a32.61,32.61 0 0 0 -12.97,0.16z" id="svg_91" opacity="0.1" transform="translate(-27.8 -50.55)"/>
  <path d="m690.770001,589.140001l11.69,19.77s5.53,5.1 9.78,4.25s8.5,11.9 -8.93,9.35s-37.83,-11.9 -37.83,-11.9s-1.91,-17.22 7.86,-21l17.43,-0.47z" fill="#b77983" id="svg_92"/>
  <path d="m587.900001,582.340001l-9.14,21.47s-2.55,6 -7.65,6s-6.8,10.63 9.78,8.93s28.91,-14.88 28.91,-14.88s-1.28,-20.4 -8.93,-21.68a32.61,32.61 0 0 0 -12.97,0.16z" fill="#b77983" id="svg_93"/>
  <g id="svg_94" opacity="0.1">
   <path d="m638,473.7c-0.43,3 -12.33,26.36 -16.58,30.18c-3.9,3.51 -11.39,27.82 -12.59,31.76c-0.77,0.15 -1.53,0.32 -2.29,0.54c0,0 8.5,-28.48 12.75,-32.31s16.15,-27.21 16.58,-30.18c0.08,-0.59 2.57,-0.8 6.48,-0.74c-2.64,0.05 -4.27,0.27 -4.35,0.75z" id="svg_95" transform="translate(-27.8 -50.55)"/>
   <path d="m667.77,525.13c6,-0.85 17.85,13.6 22.53,23.8c0.27,0.59 0.54,1.13 0.82,1.64c2.64,4.8 5.63,6.2 7.7,6.53c-1.37,0.25 -6,0.46 -9.83,-6.53c-0.28,-0.51 -0.55,-1.05 -0.82,-1.64c-4.29,-9.36 -14.65,-22.28 -20.93,-23.7l0.53,-0.1z" id="svg_96" transform="translate(-27.8 -50.55)"/>
   <path d="m638.72,543.69l-0.07,-0.07c-1.37,-1 -12,-8 -23.65,-8.43c12.45,-0.43 24.32,7.34 25.78,8.43l0.07,0.07c1.23,1.34 -4.19,9 -5.52,10.8a19.37,19.37 0 0 1 -2.41,0.39s7.2,-9.67 5.8,-11.19z" id="svg_97" transform="translate(-27.8 -50.55)"/>
  </g>
  <path d="m748.11,313.44s0,-25.93 -17,-27.21s-23,7.65 -19.55,8.5s17.85,6.8 17.85,6.8l9.35,15.73l9.35,-3.82z" fill="#f7bbc3" id="svg_98" transform="translate(-27.8 -50.55)"/>
  <path d="m594.23,319.39s0,-25.93 17,-27.21s23,7.65 19.55,8.5s-17.85,6.8 -17.85,6.8l-9.35,15.73l-9.35,-3.82z" fill="#f7bbc3" id="svg_99" transform="translate(-27.8 -50.55)"/>
  <path d="m671.17,346.17s-1.28,17 9.35,26.78s-24.65,22.1 -24.65,22.1l-15.73,-18.7s12.75,-7.65 6,-20.83l25.03,-9.35z" fill="#f7bbc3" id="svg_100" transform="translate(-27.8 -50.55)"/>
  <path d="m674.57,366.15s3.83,6 13.18,0.43s31.46,-5.58 31.46,-5.58l22.1,-10.2s-1.7,-36.56 -6.8,-38.26c0,0 10.2,4.25 13.18,-4.25l17,45.06s-1.28,9.78 -10.63,13.6l-35.28,21.68s-15.3,9.35 -15.3,32.73s-3,60.36 -3,60.36s-49.31,29.76 -69.29,-5.1c0,0 8.08,-41.23 2.55,-51.44c0,0 -1.7,-26.78 -15.3,-31.88l-35.26,-32.3s-6.8,-4.25 -1.7,-16.58l11.9,-29.33s7.23,10.2 13.18,5.1l-6.8,28.91l13.6,12.75s12.75,6.38 19.13,6s13.6,2.55 13.6,2.55s3,17 16.58,15.3c0,0 25.93,-1.27 11.9,-19.55z" id="svg_101" opacity="0.1" transform="translate(-27.8 -50.55)"/>
  <path d="m674.57,364.45s3.83,6 13.18,0.43s31.46,-5.53 31.46,-5.53l22.1,-10.2s-1.7,-36.56 -6.8,-38.26c0,0 10.2,4.25 13.18,-4.25l17,45.06s-1.28,9.78 -10.63,13.6l-35.28,21.7s-15.3,9.35 -15.3,32.73s-3,60.36 -3,60.36s-49.31,29.76 -69.29,-5.1c0,0 8.08,-41.23 2.55,-51.44c0,0 -1.7,-26.78 -15.3,-31.88l-35.28,-32.31s-6.8,-4.25 -1.7,-16.58l11.9,-29.33s7.23,10.2 13.18,5.1l-6.8,28.91l13.6,12.75s12.75,6.38 19.13,6s13.6,2.55 13.6,2.55s3,17 16.58,15.3c0.02,-0.06 25.95,-1.33 11.92,-19.61z" id="svg_102" opacity="0.1" transform="translate(-27.8 -50.55)"/>
  <path d="m674.59,365.33l0.17,0.23l-0.17,-0.23z" fill="#d39999" id="svg_103" transform="translate(-27.8 -50.55)"/>
  <path d="m555.380001,309.650001l35.28,32.31c13.6,5.1 15.3,31.88 15.3,31.88c5.53,10.2 -2.55,51.44 -2.55,51.44c20,34.86 69.29,5.1 69.29,5.1s0.1,-1.22 0.26,-3.37c0.14,-1.88 0.33,-4.48 0.54,-7.57c0.28,-4 0.6,-8.83 0.9,-14.07c0.67,-11.45 1.28,-24.79 1.28,-35.35c0,-23.38 15.3,-32.73 15.3,-32.73l26.47,-16.26l8.82,-5.42c9.35,-3.83 10.63,-13.6 10.63,-13.6l-17,-45.06c-2.78,7.94 -11.87,4.75 -13.05,4.3c5,2.26 6.67,38.21 6.67,38.21l-22.1,10.2s-22.1,0 -31.46,5.53c-8,4.7 -11.91,1.1 -12.91,-0.09c13.44,18 -12.17,19.21 -12.17,19.21c-13.6,1.7 -16.58,-15.3 -16.58,-15.3s-7.23,-3 -13.6,-2.55s-19.13,-6 -19.13,-6l-13.6,-12.75l6.8,-28.91c-6,5.1 -13.18,-5.1 -13.18,-5.1l-11.9,29.33c-5.11,12.37 1.69,16.62 1.69,16.62z" fill="#888888" id="svg_104"/>
  <path d="m671.17,347.87a40.88,40.88 0 0 0 0.41,8a20.82,20.82 0 0 1 -24,12.53a15,15 0 0 0 -1.51,-11.16l25.1,-9.37z" id="svg_105" opacity="0.1" transform="translate(-27.8 -50.55)"/>
  <circle cx="624.46" cy="295.84" fill="#f7bbc3" id="svg_106" r="20.83"/>
  <path d="m652.59,334.54c0.18,2.11 0.33,4.36 -0.64,6.24a11.3,11.3 0 0 1 -2,2.56l-4.36,4.49a11.49,11.49 0 0 0 -3.11,4.43c-1.26,4.2 2.46,8.37 2.34,12.76a5.68,5.68 0 0 1 -6.44,2.38a11,11 0 0 1 -2.69,-1.49l-4.27,-2.91c-3.25,-2.22 -6.65,-4.62 -8.28,-8.2c-1.71,-3.77 -1.13,-8.13 -1.21,-12.27a63.79,63.79 0 0 1 -0.11,-7.57a22.3,22.3 0 0 1 2,-6.94a25.21,25.21 0 0 1 8.9,-10.83a17.65,17.65 0 0 1 13.56,-2.63a9.15,9.15 0 0 0 2.3,0.41c1.51,0 2.81,-1 4.2,-1.59a8.64,8.64 0 0 1 10.09,2.91c0.92,1.3 1.45,2.85 2.41,4.11c1.43,1.88 3.76,3.07 4.73,5.22s0.32,4.61 0.53,6.93a19.08,19.08 0 0 0 1.89,5.95c-2.36,-0.82 -3.51,-3.4 -5,-5.38a13.25,13.25 0 0 0 -9.75,-4.94c-1.3,-0.06 -3.71,-0.16 -4.74,0.83c-1.31,1.27 -0.48,3.99 -0.35,5.53z" id="svg_107" opacity="0.1" transform="translate(-27.8 -50.55)"/>
  <path d="m624.370001,283.140001c0.18,2.11 0.33,4.36 -0.64,6.24a11.3,11.3 0 0 1 -2,2.56l-4.42,4.51a11.49,11.49 0 0 0 -3.11,4.4c-1.26,4.2 2.46,8.37 2.34,12.76a5.68,5.68 0 0 1 -6.44,2.38a11,11 0 0 1 -2.69,-1.49l-4.21,-2.87c-3.25,-2.22 -6.65,-4.62 -8.28,-8.2c-1.71,-3.77 -1.13,-8.13 -1.21,-12.27a63.79,63.79 0 0 1 -0.11,-7.57a22.3,22.3 0 0 1 2,-6.94a25.21,25.21 0 0 1 8.9,-10.83a17.65,17.65 0 0 1 13.56,-2.63a9.15,9.15 0 0 0 2.3,0.41c1.51,0 2.81,-1 4.2,-1.59a8.64,8.64 0 0 1 10.09,2.91c0.92,1.3 1.45,2.85 2.41,4.11c1.43,1.88 3.76,3.07 4.73,5.22s0.32,4.61 0.53,6.93a19.08,19.08 0 0 0 1.89,5.95c-2.36,-0.82 -3.51,-3.4 -5,-5.38a13.25,13.25 0 0 0 -9.75,-4.94c-1.3,-0.06 -3.71,-0.16 -4.74,0.83c-1.32,1.24 -0.52,3.95 -0.35,5.5z" fill="#74585e" id="svg_108"/>
  <g id="svg_109" opacity="0.1">
   <path d="m674.75,365.54c-0.12,-0.15 -0.18,-0.24 -0.18,-0.24l0.18,0.24z" id="svg_110" transform="translate(-27.8 -50.55)"/>
   <path d="m602.77,320.81a5.47,5.47 0 0 0 3.79,-1.42l-0.41,1.72a6,6 0 0 1 -3.38,-0.3z" id="svg_111" transform="translate(-27.8 -50.55)"/>
   <path d="m678.13,367.74c10.65,16.35 -13.33,17.54 -13.33,17.54a13.23,13.23 0 0 1 -5.46,-0.39a14.21,14.21 0 0 0 3.33,0s25.7,-1.27 12.08,-19.32a6.92,6.92 0 0 0 3.38,2.17z" id="svg_112" transform="translate(-27.8 -50.55)"/>
   <path d="m634.62,367.43a17.93,17.93 0 0 1 -5.11,-0.61a13.84,13.84 0 0 0 3,0.19a27.88,27.88 0 0 1 7.87,0.79a25,25 0 0 0 -5.76,-0.37z" id="svg_113" transform="translate(-27.8 -50.55)"/>
   <path d="m581.48,343.62l11.9,-29.33a21.73,21.73 0 0 0 1.54,1.87l-11.31,27.84c-5.1,12.33 1.7,16.58 1.7,16.58l35.28,32.31c13.6,5.1 15.3,31.88 15.3,31.88c5.53,10.2 -2.55,51.44 -2.55,51.44c5.36,9.35 12.83,14 20.9,15.92c-8.87,-1.51 -17.19,-6.18 -23,-16.35c0,0 8.08,-41.23 2.55,-51.44c0,0 -1.7,-26.78 -15.3,-31.88l-35.31,-32.26s-6.8,-4.25 -1.7,-16.58z" id="svg_114" transform="translate(-27.8 -50.55)"/>
   <path d="m734.51,311.74a15.76,15.76 0 0 0 2.69,0.77c4.66,4.09 6.23,37.91 6.23,37.91l-22.1,10.2s-22.1,0 -31.46,5.53c-4.58,2.71 -7.83,2.66 -10,1.91c2,0.12 4.57,-0.41 7.83,-2.33c9.35,-5.53 31.46,-5.53 31.46,-5.53l22.1,-10.2s-1.65,-36.56 -6.75,-38.26z" id="svg_115" transform="translate(-27.8 -50.55)"/>
   <path d="m738.22,312.68c3.23,0.42 7.67,-0.05 9.47,-5.19l1,2.65c-2.79,3.96 -7.89,3.23 -10.47,2.54z" id="svg_116" transform="translate(-27.8 -50.55)"/>
  </g>
  <path d="m702.2,455.91c0.67,-11.45 1.28,-24.79 1.28,-35.35c0,-23.38 15.3,-32.73 15.3,-32.73l26.47,-16.26c-15.4,4 -35.89,10.89 -37.73,19c-3,13.18 -8.5,14.45 -6.38,37a254.89,254.89 0 0 1 1.06,28.34z" id="svg_117" opacity="0.1" transform="translate(-27.8 -50.55)"/>
  <path d="m698.16,488.36s-3.83,11.9 6.8,19.55" id="svg_118" opacity="0.1" transform="translate(-27.8 -50.55)"/>
  <path d="m638.65,488.36s-1.28,8.93 -6.38,12.33" id="svg_119" opacity="0.1" transform="translate(-27.8 -50.55)"/>
  <path d="m693.28,659.46s20.4,9.35 37.83,11.9c8.84,1.29 12.1,-1.35 12.61,-4.15c0.58,3.27 -2,7.41 -12.61,5.85c-17.43,-2.55 -37.83,-11.9 -37.83,-11.9a36,36 0 0 1 -0.14,-4.25c0.03,1.55 0.14,2.55 0.14,2.55z" id="svg_120" opacity="0.1" transform="translate(-27.8 -50.55)"/>
  <path d="m608.26,668.38c16.58,-1.7 28.91,-14.88 28.91,-14.88s-0.63,-10.06 -3.65,-16.49c3.39,6.35 4.08,17.34 4.08,17.34s-12.33,13.18 -28.91,14.88c-8.47,0.87 -12.17,-1.48 -13.08,-4c1.39,2.17 5.15,3.92 12.65,3.15z" id="svg_121" opacity="0.1" transform="translate(-27.8 -50.55)"/>
  <path d="m628.2,232.51a37.5,37.5 0 1 0 7.8,-22.88a37.5,37.5 0 0 0 -7.8,22.88z" fill="url(#796bd2e3-6922-48c9-8d61-1a37047129f5)" id="svg_122" transform="translate(-27.8 -50.55)"/>
  <path d="m629.58,232.51a36.13,36.13 0 1 0 7.51,-22a36.12,36.12 0 0 0 -7.51,22z" fill="#e0e0e0" id="svg_123" transform="translate(-27.8 -50.55)"/>
  <line fill="none" id="svg_124" stroke="#535461" stroke-miterlimit="10" x1="617.66" x2="617.66" y1="164.21" y2="178.23"/>
  <line fill="none" id="svg_125" stroke="#535461" stroke-miterlimit="10" x1="644.44" x2="629.81" y1="176.98" y2="186.64"/>
  <line fill="none" id="svg_126" stroke="#535461" stroke-miterlimit="10" x1="629.81" x2="646.94" y1="155.5" y2="162.66"/>
  <line fill="none" id="svg_127" stroke="#535461" stroke-miterlimit="10" x1="658.46" x2="657.52" y1="179.47" y2="201.27"/>
  <line fill="none" id="svg_128" stroke="#535461" stroke-miterlimit="10" x1="646.94" x2="627.63" y1="207.81" y2="198.16"/>
  <line fill="none" id="svg_129" stroke="#535461" stroke-miterlimit="10" x1="617.66" x2="617.66" y1="199.72" y2="211.89"/>
  <line fill="none" id="svg_130" stroke="#535461" stroke-miterlimit="10" x1="610.5" x2="602.08" y1="190.37" y2="186.64"/>
  <line fill="none" id="svg_131" stroke="#535461" stroke-miterlimit="10" x1="657.52" x2="656.88" y1="161.41" y2="151.22"/>
  <line fill="none" id="svg_132" stroke="#535461" stroke-miterlimit="10" x1="663.13" x2="673.57" y1="173.25" y2="176.23"/>
  <polygon fill="#000000" id="svg_133" points="665.93 173.25 657.84 159.23 644.45 161.41 644.45 176.98 658.77 184.46 665.93 173.25"/>
  <path d="m609.290001,159.920001l8.38,4.29c2.8,-3.74 14.32,-8.1 14.32,-8.1l-1.2,-9.57a36.08,36.08 0 0 0 -21.5,13.38z" fill="#000000" id="svg_134"/>
  <polygon fill="#000000" id="svg_135" points="631.99 185.08 617.35 178.23 609.25 189.75 617.66 203.14 631.99 200.96 631.99 185.08"/>
  <path d="m644.440001,205.940001l0,11.51a36.12,36.12 0 0 0 23.29,-15.15l-10.21,-4.19l-13.08,7.83z" fill="#000000" id="svg_136"/>
  <path d="m136.3,498.11a31.46,31.46 0 1 0 6.53,-19.19a31.45,31.45 0 0 0 -6.53,19.19z" fill="url(#fd3c50c2-1925-4067-85c5-f26d2d595195)" id="svg_137" transform="translate(-27.8 -50.55)"/>
  <path d="m137.46,498.11a30.3,30.3 0 1 0 6.29,-18.49a30.3,30.3 0 0 0 -6.29,18.49z" fill="#e0e0e0" id="svg_138" transform="translate(-27.8 -50.55)"/>
  <line fill="none" id="svg_139" stroke="#535461" stroke-miterlimit="10" x1="122.98" x2="122.98" y1="432.67" y2="444.43"/>
  <line fill="none" id="svg_140" stroke="#535461" stroke-miterlimit="10" x1="145.44" x2="133.16" y1="443.38" y2="451.48"/>
  <line fill="none" id="svg_141" stroke="#535461" stroke-miterlimit="10" x1="133.16" x2="147.53" y1="425.36" y2="431.37"/>
  <line fill="none" id="svg_142" stroke="#535461" stroke-miterlimit="10" x1="157.19" x2="156.41" y1="445.47" y2="463.76"/>
  <line fill="none" id="svg_143" stroke="#535461" stroke-miterlimit="10" x1="147.53" x2="131.33" y1="469.24" y2="461.14"/>
  <line fill="none" id="svg_144" stroke="#535461" stroke-miterlimit="10" x1="122.98" x2="122.98" y1="462.45" y2="472.66"/>
  <line fill="none" id="svg_145" stroke="#535461" stroke-miterlimit="10" x1="116.97" x2="109.91" y1="454.61" y2="451.48"/>
  <line fill="none" id="svg_146" stroke="#535461" stroke-miterlimit="10" x1="156.41" x2="155.87" y1="430.32" y2="421.78"/>
  <line fill="none" id="svg_147" stroke="#535461" stroke-miterlimit="10" x1="161.11" x2="169.87" y1="440.25" y2="442.75"/>
  <polygon fill="#191919" id="svg_148" points="163.46 440.25 156.67 428.5 145.44 430.32 145.44 443.38 157.45 449.65 163.46 440.25"/>
  <path d="m115.950001,429.070001l7,3.6c2.35,-3.13 12,-6.79 12,-6.79l-1,-8a30.26,30.26 0 0 0 -18,11.19z" fill="#191919" id="svg_149"/>
  <polygon fill="#191919" id="svg_150" points="134.99 450.17 122.72 444.43 115.92 454.09 122.98 465.32 134.99 463.49 134.99 450.17"/>
  <path d="m145.440001,467.670001l0,9.69a30.29,30.29 0 0 0 19.53,-12.71l-8.56,-3.51l-10.97,6.53z" fill="#191919" id="svg_151"/>
  <path d="m113.2,535.92a31.46,31.46 0 1 0 6.53,-19.19a31.45,31.45 0 0 0 -6.53,19.19z" fill="url(#1c0a27d4-1f07-420a-99e3-d67bda5d7f31)" id="svg_152" transform="translate(-27.8 -50.55)"/>
  <path d="m114.36,535.92a30.3,30.3 0 1 0 6.29,-18.49a30.3,30.3 0 0 0 -6.29,18.49z" fill="#e0e0e0" id="svg_153" transform="translate(-27.8 -50.55)"/>
  <line fill="none" id="svg_154" stroke="#535461" stroke-miterlimit="10" x1="99.88" x2="99.88" y1="470.48" y2="482.23"/>
  <line fill="none" id="svg_155" stroke="#535461" stroke-miterlimit="10" x1="122.34" x2="110.07" y1="481.19" y2="489.29"/>
  <line fill="none" id="svg_156" stroke="#535461" stroke-miterlimit="10" x1="110.07" x2="124.43" y1="463.17" y2="469.18"/>
  <line fill="none" id="svg_157" stroke="#535461" stroke-miterlimit="10" x1="134.09" x2="133.31" y1="483.28" y2="501.56"/>
  <line fill="none" id="svg_158" stroke="#535461" stroke-miterlimit="10" x1="124.43" x2="108.24" y1="507.05" y2="498.95"/>
  <line fill="none" id="svg_159" stroke="#535461" stroke-miterlimit="10" x1="99.88" x2="99.88" y1="500.26" y2="510.47"/>
  <line fill="none" id="svg_160" stroke="#535461" stroke-miterlimit="10" x1="93.87" x2="86.81" y1="492.42" y2="489.29"/>
  <line fill="none" id="svg_161" stroke="#535461" stroke-miterlimit="10" x1="133.31" x2="132.77" y1="468.13" y2="459.59"/>
  <line fill="none" id="svg_162" stroke="#535461" stroke-miterlimit="10" x1="138.01" x2="146.77" y1="478.06" y2="480.56"/>
  <polygon fill="#191919" id="svg_163" points="140.36 478.06 133.57 466.3 122.34 468.13 122.34 481.19 134.36 487.46 140.36 478.06"/>
  <path d="m92.850001,466.880001l7,3.6c2.35,-3.13 12,-6.79 12,-6.79l-1,-8a30.26,30.26 0 0 0 -18,11.19z" fill="#191919" id="svg_164"/>
  <polygon fill="#191919" id="svg_165" points="92.88999938964844,485.9800109863281 105.08274841308594,480.2300109863281 111.83000183105469,489.8999938964844 104.82439422607422,501.1300048828125 92.88999938964844,499.29998779296875 92.88999938964844,485.9800109863281 "/>
  <path d="m122.340001,505.450001l0,9.69a30.29,30.29 0 0 0 19.53,-12.69l-8.56,-3.51l-10.97,6.51z" fill="#191919" id="svg_166"/>
 </g>
</svg>