<?xml version="1.0"?>
<svg width="1041.32" height="572.19" xmlns="http://www.w3.org/2000/svg" xmlns:svg="http://www.w3.org/2000/svg" xmlns:se="http://svg-edit.googlecode.com" data-name="Layer 1">
 <title>gamer</title>
 <g class="layer">
  <title>Layer 1</title>
  <path d="m437.27,520.77c1.07,-2.15 2.85,-3.85 4.33,-5.75a8.33,8.33 0 0 1 -0.67,0.5a11.07,11.07 0 0 0 -3,1.89a6.24,6.24 0 0 0 -1.08,2.55l-2.55,9.91c0.5,-0.63 1,-1.25 1.51,-1.87a17.51,17.51 0 0 1 1.46,-7.23z" fill="#f2f2f2" id="svg_1" transform="translate(-79.34 -163.91)"/>
  <path d="m678,527.46a11.23,11.23 0 0 1 -1,3.23a45.09,45.09 0 0 1 -1.69,12.44a38.19,38.19 0 0 0 -1.05,5.19c-2.36,16.14 -4.64,33 -0.61,48.64a5.92,5.92 0 0 1 1.53,-2.5c2.66,-3.27 3.71,-7.53 4.5,-11.67c4.15,-21.81 3,-44.06 2,-66.34a7.36,7.36 0 0 0 -2.18,-1.64a20.14,20.14 0 0 1 -0.07,2.91a96.74,96.74 0 0 1 -1.43,9.74z" fill="#f2f2f2" id="svg_2" transform="translate(-79.34 -163.91)"/>
  <path d="m537.78,520.8a10.22,10.22 0 0 0 -0.78,-3.8a11.82,11.82 0 0 0 -1.94,-2.68l-2.16,-2.46c-1.1,26.12 -3.44,52.31 1.42,77.89c0.79,4.14 1.84,8.4 4.5,11.67a5.92,5.92 0 0 1 1.53,2.5c4,-15.6 1.75,-32.5 -0.61,-48.64a38.19,38.19 0 0 0 -1.05,-5.19a49.58,49.58 0 0 1 -1.22,-20.09a47,47 0 0 0 0.31,-9.2z" fill="#f2f2f2" id="svg_3" transform="translate(-79.34 -163.91)"/>
  <path d="m550.16,465.67c2.89,4.76 4.69,10.4 6.31,15.79l0.69,2.33c-0.33,-7.9 -0.49,-15.81 -0.55,-23.72q-2.34,2.08 -4.71,4.11l-1.74,1.49z" fill="#f2f2f2" id="svg_4" transform="translate(-79.34 -163.91)"/>
  <path d="m573.41,732.24a53.47,53.47 0 0 0 -1.27,-16.52c-0.88,-3.43 -2.24,-6.78 -2.36,-10.31a31.61,31.61 0 0 1 0.86,-7c4.11,-20.91 5.88,-42.89 -0.34,-63.27c-1.67,-5.46 -3.88,-10.74 -5.58,-16.18a39.35,39.35 0 0 1 -2.82,5.9a6.11,6.11 0 0 0 -3.41,-4a20.14,20.14 0 0 1 -0.07,2.91a96.74,96.74 0 0 1 -1.39,9.74a9.87,9.87 0 0 1 -1.23,3.65a8.22,8.22 0 0 1 -3.22,2.66c0.58,1.32 1.16,2.63 1.73,4l-4.17,1.18c2.74,6 0.46,12.85 -1,19.22c-5.23,22.19 -0.52,45.89 -3,68.33l27.27,-0.31z" fill="#f2f2f2" id="svg_5" transform="translate(-79.34 -163.91)"/>
  <path d="m558.27,414.77c1.07,-2.15 2.85,-3.85 4.33,-5.75a8.33,8.33 0 0 1 -0.67,0.5a11.07,11.07 0 0 0 -3,1.89a6.24,6.24 0 0 0 -1.08,2.55l-2.55,9.91c0.5,-0.63 1,-1.25 1.51,-1.87a17.51,17.51 0 0 1 1.46,-7.23z" fill="#f2f2f2" id="svg_6" transform="translate(-79.34 -163.91)"/>
  <path d="m658.78,414.8a10.22,10.22 0 0 0 -0.78,-3.8a11.82,11.82 0 0 0 -1.94,-2.68l-2.16,-2.46c-1.08,25.73 -3.36,51.52 1.22,76.73c0.81,-2.73 1.63,-5.45 2.44,-8.17a83.07,83.07 0 0 1 4.81,-13.09c-0.47,-4 -1.05,-8.07 -1.63,-12.05a38.19,38.19 0 0 0 -1.05,-5.19a49.58,49.58 0 0 1 -1.22,-20.09a47,47 0 0 0 0.31,-9.2z" fill="#f2f2f2" id="svg_7" transform="translate(-79.34 -163.91)"/>
  <path d="m615.17,611.37l-3.42,120.45l9,-0.1a376.12,376.12 0 0 1 -2.16,-44.14c0,-4.29 0.15,-8.63 -0.74,-12.82c-0.63,-2.93 -1.73,-5.74 -2.33,-8.68a51.92,51.92 0 0 1 -0.67,-10.65l0.32,-44.06z" fill="#f2f2f2" id="svg_8" transform="translate(-79.34 -163.91)"/>
  <path d="m537.83,611.44c0.14,-0.34 0.28,-0.66 0.41,-1c0.47,-1.22 0.89,-2.45 1.28,-3.69l-0.08,0.14c-0.79,1.3 -1.65,2.55 -2.54,3.78c0.32,0.24 0.63,0.5 0.93,0.77z" fill="#f2f2f2" id="svg_9" transform="translate(-79.34 -163.91)"/>
  <path d="m265.78,476.8a10.22,10.22 0 0 0 -0.78,-3.8a11.82,11.82 0 0 0 -1.94,-2.68l-2.16,-2.46c-1.1,26.12 -3.44,52.31 1.42,77.89c0.79,4.14 1.84,8.4 4.5,11.67a5.92,5.92 0 0 1 1.53,2.5c4,-15.6 1.75,-32.5 -0.61,-48.64a38.19,38.19 0 0 0 -1,-5.19a49.58,49.58 0 0 1 -1.27,-20.09a47,47 0 0 0 0.31,-9.2z" fill="#f2f2f2" id="svg_10" transform="translate(-79.34 -163.91)"/>
  <path d="m265.83,567.44c0.14,-0.34 0.28,-0.66 0.41,-1c0.47,-1.22 0.89,-2.45 1.28,-3.69l-0.08,0.14c-0.79,1.3 -1.65,2.55 -2.54,3.78c0.32,0.24 0.63,0.5 0.93,0.77z" fill="#f2f2f2" id="svg_11" transform="translate(-79.34 -163.91)"/>
  <path d="m222.17,673.37q-0.88,31.35 -1.78,62.7l4.29,-0.05c-0.64,-2.66 -1.59,-5.25 -2.14,-7.94a51.92,51.92 0 0 1 -0.67,-10.65l0.3,-44.06z" fill="#f2f2f2" id="svg_12" transform="translate(-79.34 -163.91)"/>
  <path d="m286.42,733.77a8.22,8.22 0 0 1 -3.22,-2.66a9.87,9.87 0 0 1 -1.23,-3.65a96.74,96.74 0 0 1 -1.39,-9.74a20.14,20.14 0 0 1 -0.07,-2.91a6.11,6.11 0 0 0 -3.41,4a46.63,46.63 0 0 1 -5.62,-16.75c-0.3,1 -0.61,2.1 -1,3.15c-2.08,6.19 -5.1,12.18 -5.7,18.68a37,37 0 0 0 1,11.67l19.86,-0.21l0.78,-1.58z" fill="#f2f2f2" id="svg_13" transform="translate(-79.34 -163.91)"/>
  <path d="m299.48,700.75c0.39,1.24 0.81,2.47 1.28,3.69c0.13,0.34 0.27,0.66 0.41,1c0.3,-0.27 0.61,-0.53 0.93,-0.77c-0.89,-1.23 -1.75,-2.48 -2.54,-3.78l-0.08,-0.14z" fill="#f2f2f2" id="svg_14" transform="translate(-79.34 -163.91)"/>
  <path d="m442.75,721.55a123.92,123.92 0 0 1 -2.87,-18.11q-2.38,-22 -4.76,-44c-0.05,-0.39 -0.09,-0.77 -0.13,-1.16c-0.06,0.19 -0.11,0.38 -0.17,0.57c-1.21,3.55 -3.61,6.55 -6,9.47s-5.38,5.93 -8.89,5.08a9.57,9.57 0 0 1 -3.81,-2.36l-8,-6.91q-2.37,-2 -4.71,-4.11c-0.07,9.65 -0.29,19.3 -0.79,28.93c-0.16,3 -0.41,6.23 -1.85,8.9a101.86,101.86 0 0 1 4.86,28.34c0.07,2.61 0,5.21 -0.08,7.82l23.44,-0.25l0.14,0l17.63,-0.19c-1.47,-3.94 -2.95,-7.91 -4.01,-12.02z" fill="#f2f2f2" id="svg_15" transform="translate(-79.34 -163.91)"/>
  <path d="m403.15,622c0.5,0.62 1,1.24 1.51,1.87l-2.55,-9.87a6.24,6.24 0 0 0 -1.08,-2.55a11.07,11.07 0 0 0 -3,-1.89a8.33,8.33 0 0 1 -0.67,-0.5c1.48,1.9 3.26,3.6 4.33,5.75a17.51,17.51 0 0 1 1.46,7.19z" fill="#f2f2f2" id="svg_16" transform="translate(-79.34 -163.91)"/>
  <path d="m432.14,578.07c0.63,6.94 1,13.91 1.35,20.88s0.71,13.76 1.06,20.64a101.62,101.62 0 0 1 3.7,-15.69c-1.44,-2.67 -1.69,-5.85 -1.85,-8.9c-0.5,-9.63 -0.72,-19.28 -0.79,-28.93c-1.53,1.37 -3.08,2.71 -4.64,4a56.16,56.16 0 0 1 1.17,8z" fill="#f2f2f2" id="svg_17" transform="translate(-79.34 -163.91)"/>
  <path d="m299.29,649.32c-2.36,16.14 -4.64,33 -0.61,48.64a5.92,5.92 0 0 1 1.53,-2.5c2.66,-3.27 3.71,-7.53 4.5,-11.67c4.86,-25.58 2.52,-51.77 1.42,-77.89l-2.13,2.46a11.82,11.82 0 0 0 -2,2.64a10.22,10.22 0 0 0 -0.81,3.76a47,47 0 0 0 0.31,9.18a49.58,49.58 0 0 1 -1.19,20.15a38.19,38.19 0 0 0 -1.02,5.23z" fill="#f2f2f2" id="svg_18" transform="translate(-79.34 -163.91)"/>
  <path d="m660.9,731.29l7.84,-0.09c-4.18,-24.07 1.85,-49.92 -3.83,-74c-0.89,-3.75 -2,-7.68 -2.28,-11.49c-2,5.32 -4.29,10.56 -4.81,16.18c-0.91,9.74 3.67,19.06 5.37,28.68c2.34,13.27 -0.83,26.8 -2.24,40.2c-0.02,0.23 -0.03,0.35 -0.05,0.52z" fill="#f2f2f2" id="svg_19" transform="translate(-79.34 -163.91)"/>
  <path d="m930.48,719.22c-9.08,-27.06 0,-57.23 -6.57,-85c-1.51,-6.37 -3.79,-13.27 -1,-19.22l-4.17,-1.27c0.57,-1.32 1.15,-2.63 1.73,-4a10.35,10.35 0 0 1 -2.24,-1.54l-3.06,28.21a123.92,123.92 0 0 1 -2.87,18.11c-1.73,6.66 -4.54,13 -6.55,19.55c-5.37,17.57 -4.78,36.32 -1.89,54.56l30,-0.33c-1.1,-3 -2.35,-6.01 -3.38,-9.07z" fill="#f2f2f2" id="svg_20" transform="translate(-79.34 -163.91)"/>
  <path d="m916.45,451.74l0.08,-0.28l0.36,-1.17a12.91,12.91 0 0 0 -2.82,-1.77a8.33,8.33 0 0 1 -0.67,-0.5c0.99,1.26 2.1,2.44 3.05,3.72z" fill="#f2f2f2" id="svg_21" transform="translate(-79.34 -163.91)"/>
  <path d="m815.48,539.75c0.39,1.24 0.81,2.47 1.28,3.69c0.13,0.34 0.27,0.66 0.41,1c0.3,-0.27 0.61,-0.53 0.93,-0.77c-0.89,-1.23 -1.75,-2.48 -2.54,-3.78l-0.08,-0.14z" fill="#f2f2f2" id="svg_22" transform="translate(-79.34 -163.91)"/>
  <path d="m938.71,559.79c3.07,-16.12 3.27,-32.48 2.72,-48.92a6.39,6.39 0 0 1 -5.47,1.58l-0.17,-0.05a42.47,42.47 0 0 1 -1.45,7.73a38.19,38.19 0 0 0 -1.05,5.19c-2.36,16.14 -4.64,33 -0.61,48.64a5.92,5.92 0 0 1 1.53,-2.5c2.66,-3.27 3.71,-7.53 4.5,-11.67z" fill="#f2f2f2" id="svg_23" transform="translate(-79.34 -163.91)"/>
  <path d="m494.07,733.1q0,-7.86 0.1,-15.73q-0.23,7.88 -0.44,15.74l0.34,-0.01z" fill="#f2f2f2" id="svg_24" transform="translate(-79.34 -163.91)"/>
  <path d="m1117.24,299.29q-1,-5.66 -2.37,-11.11c-9.7,-39.22 -32.41,-70.52 -74,-87.46q-5.35,-2.17 -11.12,-4a189.09,189.09 0 0 0 -26.76,-6.4c-87.24,-14.59 -160.6,-7.65 -226.73,5.51c-3.73,0.73 -7.43,1.5 -11.12,2.28c-92.7,19.59 -171.64,49.94 -255.87,47.29c-3.69,-0.11 -7.4,-0.29 -11.11,-0.53c-36.72,-2.44 -74.6,-11.43 -115.17,-30.55c-47.95,-22.59 -96.71,-15 -140.7,11.9c-24.83,15.16 -48.14,36.48 -68.93,62l-0.07,0.08q-4.4,5.4 -8.64,11c-67.65,89.88 -105.21,224.28 -74.4,328.43q1.66,5.63 3.6,11.12c8.9,25.39 22.14,48.73 40.3,68.87a86.39,86.39 0 0 0 39.09,24.75c2.58,0.79 5.21,1.45 7.87,2c0.75,-12.64 -0.12,-25.28 -3.81,-37.36c-2,-6.57 -4.82,-12.89 -6.55,-19.55a123.92,123.92 0 0 1 -2.87,-18.11q-2.38,-22 -4.76,-44c-1,-9.06 -2,-18.15 -1.73,-27.25a101.86,101.86 0 0 1 4.86,-28.34c-1.44,-2.67 -1.69,-5.85 -1.85,-8.9c-0.5,-9.63 -0.72,-19.28 -0.79,-28.93q-2.34,2.08 -4.71,4.11l-8.05,6.91a9.57,9.57 0 0 1 -3.81,2.36c-3.51,0.85 -6.62,-2.27 -8.89,-5.08s-4.76,-5.92 -6,-9.47a29.65,29.65 0 0 1 -1.09,-10.16c0.08,-4.39 0.3,-8.77 0.53,-13.15l1.92,-36.55c0.36,-7 0.72,-13.94 1.35,-20.88c0.45,-5 1.09,-10.09 3.66,-14.35c4.83,-8 15.19,-10.8 24.6,-10.12a3.51,3.51 0 0 1 -0.09,-3a5.31,5.31 0 0 1 2.42,-2l13.88,-7.43a7.7,7.7 0 0 1 3.26,-1.15a3.84,3.84 0 0 1 1.78,0.37l2.69,-1.88a7,7 0 0 1 2,-1.09a4.72,4.72 0 0 1 2.73,0.13a10.93,10.93 0 0 0 1.15,-4.33a15.41,15.41 0 0 0 -1.18,-5.46a26.39,26.39 0 0 1 -10.46,-20.81c-3,-1.68 -6.86,-2.63 -8.08,-6.17c-0.83,-2.4 0.16,-5.06 -0.18,-7.58a6.13,6.13 0 0 1 -1.48,-2.33c-0.86,-2.5 0.26,-5.28 -0.2,-7.88c-0.26,-1.42 -1,-2.83 -0.71,-4.25a6.21,6.21 0 0 1 1.58,-2.66l9.83,-11.65c2.17,-2.56 4.41,-5.19 7.39,-6.72c7.14,-3.66 15.69,0 23.71,0c2.69,0 5.47,-0.41 8,0.45a16.71,16.71 0 0 1 4.94,3.14l11,9c3.7,3 7.69,6.58 8.05,11.34a10.56,10.56 0 0 1 -0.62,4.24a11,11 0 0 1 2.27,5.67c0.25,3.3 -1.35,6.45 -3.19,9.2a48.7,48.7 0 0 1 -10,10.85a26.37,26.37 0 0 1 -6.33,12.73a82.56,82.56 0 0 0 2.84,10.3a1.22,1.22 0 0 1 0.07,0.17a5,5 0 0 1 2.6,0.91a13.66,13.66 0 0 1 2.16,2a3.08,3.08 0 0 1 1.46,-1.22c1.48,-0.6 3.14,0.08 4.59,0.74c4.41,2 8.9,4.08 12.49,7.33a15.85,15.85 0 0 1 3.26,4.14a20.53,20.53 0 0 1 14.42,3.25c7.56,5.18 10.67,14.64 13.3,23.42l5.89,19.69c2.58,8.63 5.18,17.34 5.78,26.32c0.55,8.18 -0.57,16.36 -1.69,24.47c-1.55,11.22 2.1,23.54 2.15,34.87c0,2.91 0,5.85 -0.07,8.8a20.52,20.52 0 0 1 13.65,-2.89a15.85,15.85 0 0 1 3.26,-4.14c3.59,-3.25 8.08,-5.31 12.49,-7.33c1.45,-0.66 3.11,-1.34 4.59,-0.74a3.08,3.08 0 0 1 1.46,1.22a13.66,13.66 0 0 1 2.16,-2a5,5 0 0 1 2.6,-0.91a1.22,1.22 0 0 1 0.07,-0.17a82.56,82.56 0 0 0 2.84,-10.3a26.37,26.37 0 0 1 -6.33,-12.73a48.7,48.7 0 0 1 -10,-10.85c-1.84,-2.75 -3.44,-5.9 -3.19,-9.2a11,11 0 0 1 2.27,-5.67a10.56,10.56 0 0 1 -0.62,-4.24c0.36,-4.76 4.35,-8.32 8.05,-11.34l11,-9a16.71,16.71 0 0 1 4.94,-3.14c2.54,-0.86 5.32,-0.45 8,-0.45c8,0 16.57,-3.64 23.71,0c3,1.53 5.22,4.16 7.39,6.72l9.83,11.65a6.21,6.21 0 0 1 1.58,2.66c0.28,1.42 -0.45,2.83 -0.71,4.25c-0.46,2.6 0.66,5.38 -0.2,7.88a6.13,6.13 0 0 1 -1.48,2.33c-0.34,2.52 0.65,5.18 -0.18,7.58c-1.22,3.54 -5.06,4.49 -8.08,6.17a26.39,26.39 0 0 1 -10.45,20.72a15.41,15.41 0 0 0 -1.18,5.46a10.93,10.93 0 0 0 1.15,4.33a4.72,4.72 0 0 1 2.73,-0.13a7,7 0 0 1 2,1.09l2.69,1.88a3.84,3.84 0 0 1 1.78,-0.37a7.7,7.7 0 0 1 3.26,1.15l13.88,7.43a9.3,9.3 0 0 1 1.7,1.13c0.11,-2.69 0.23,-5.39 0.37,-8.08l1.95,-36.54c0.36,-7 0.72,-13.94 1.35,-20.88c0.45,-5 1.09,-10.09 3.66,-14.35c4.83,-8 15.19,-10.8 24.6,-10.12a3.51,3.51 0 0 1 -0.09,-3a5.31,5.31 0 0 1 2.42,-2l13.88,-7.43a7.7,7.7 0 0 1 3.26,-1.15a3.84,3.84 0 0 1 1.78,0.37l2.69,-1.88a7,7 0 0 1 2,-1.09a4.72,4.72 0 0 1 2.73,0.13a10.93,10.93 0 0 0 1.15,-4.33a15.41,15.41 0 0 0 -1.18,-5.46a26.39,26.39 0 0 1 -10.46,-20.81c-3,-1.68 -6.86,-2.63 -8.08,-6.17c-0.83,-2.4 0.16,-5.06 -0.18,-7.58a6.13,6.13 0 0 1 -1.48,-2.33c-0.86,-2.5 0.26,-5.28 -0.2,-7.88a25.14,25.14 0 0 1 -0.76,-3.43a28.78,28.78 0 0 0 -2.5,6.48c-1.41,5.67 -1.16,11.61 -2,17.39c-0.3,2 -0.87,4.14 -2.56,5.19c-1.31,0.82 -3,0.75 -4.41,1.34c-2.36,1 -3.67,3.6 -4,6.13s0.07,5.1 0.07,7.66c0,6.69 -3.21,13.61 -9.05,16.87c-7.69,4.3 -17.24,1.45 -25.55,-1.47a22.55,22.55 0 0 0 9.54,-6.62l-9.14,-1.85a59.22,59.22 0 0 0 14.57,-9.67a12.55,12.55 0 0 0 3.72,-4.88c1,-2.81 0.07,-6 1,-8.81c1.55,-4.81 7.44,-6.63 10.44,-10.69c2.63,-3.54 2.72,-8.29 2.71,-12.69l-0.05,-16.78c0,-4.83 0.31,-10.4 4.16,-13.33c4.29,-3.27 10.37,-1.41 15.77,-1.44c5.69,0 11.11,-2.37 16.77,-3c5.34,-0.61 14.25,3.13 14.1,7.37a62.76,62.76 0 0 0 9,0.93c2.69,0 5.47,-0.41 8,0.45a16.71,16.71 0 0 1 4.94,3.14l11,9c3.7,3 7.69,6.58 8,11.34a10.56,10.56 0 0 1 -0.62,4.24a11,11 0 0 1 2.27,5.67c0.25,3.3 -1.35,6.45 -3.19,9.2a48.7,48.7 0 0 1 -10,10.85a26.37,26.37 0 0 1 -6.33,12.73a82.56,82.56 0 0 0 2.84,10.3a1.22,1.22 0 0 1 0.07,0.17a5,5 0 0 1 2.6,0.91a13.66,13.66 0 0 1 2.16,2a3.08,3.08 0 0 1 1.46,-1.22c1.48,-0.6 3.14,0.08 4.59,0.74a55.44,55.44 0 0 1 11,6.1c0,-0.2 0,-0.41 0,-0.61c0.08,-4.39 0.3,-8.77 0.53,-13.15l2,-36.6c0.36,-7 0.72,-13.94 1.35,-20.88c0.45,-5 1.09,-10.09 3.66,-14.35c4.83,-8 15.19,-10.8 24.6,-10.12a3.51,3.51 0 0 1 -0.09,-3a5.31,5.31 0 0 1 2.42,-2l13.88,-7.43a7.7,7.7 0 0 1 3.26,-1.15a3.84,3.84 0 0 1 1.78,0.37l2.69,-1.88a7,7 0 0 1 2,-1.09a4.72,4.72 0 0 1 2.73,0.13a10.93,10.93 0 0 0 1.15,-4.33a15.41,15.41 0 0 0 -1.18,-5.46a26.39,26.39 0 0 1 -10.46,-20.81c-3,-1.68 -6.86,-2.63 -8.08,-6.17c-0.83,-2.4 0.16,-5.06 -0.18,-7.58a6.13,6.13 0 0 1 -1.48,-2.33c-0.86,-2.5 0.26,-5.28 -0.2,-7.88c-0.26,-1.42 -1,-2.83 -0.71,-4.25a6.21,6.21 0 0 1 1.58,-2.66l9.83,-11.65c2.17,-2.56 4.41,-5.19 7.39,-6.72c7.14,-3.66 15.69,0 23.71,0c2.69,0 5.47,-0.41 8,0.45a16.71,16.71 0 0 1 4.94,3.14l11,9c3.7,3 7.69,6.58 8,11.34a10.56,10.56 0 0 1 -0.62,4.24a11,11 0 0 1 2.27,5.67c0.25,3.3 -1.35,6.45 -3.19,9.2a48.7,48.7 0 0 1 -10,10.85a26.37,26.37 0 0 1 -6.33,12.73a82.56,82.56 0 0 0 2.84,10.3a1.22,1.22 0 0 1 0.07,0.17a5,5 0 0 1 2.6,0.91a13.66,13.66 0 0 1 2.16,2a3.08,3.08 0 0 1 1.46,-1.22c1.48,-0.6 3.14,0.08 4.59,0.74c4.41,2 8.9,4.08 12.49,7.33a15.85,15.85 0 0 1 3.26,4.14a20.53,20.53 0 0 1 14.47,3.25c7.56,5.18 10.67,14.64 13.3,23.42l5.89,19.69c2.58,8.63 5.18,17.34 5.78,26.32c0.51,7.64 -0.44,15.29 -1.48,22.88c0.25,-0.26 0.5,-0.52 0.78,-0.77c3.59,-3.25 8.08,-5.31 12.49,-7.33c1.45,-0.66 3.11,-1.34 4.59,-0.74a3.08,3.08 0 0 1 1.46,1.22a13.66,13.66 0 0 1 2.16,-2a5,5 0 0 1 2.6,-0.91a1.22,1.22 0 0 1 0.07,-0.17a82.56,82.56 0 0 0 2.84,-10.3a26.37,26.37 0 0 1 -6.33,-12.73a48.7,48.7 0 0 1 -10,-10.85c-1.84,-2.75 -3.44,-5.9 -3.19,-9.2a11,11 0 0 1 2.27,-5.67a10.56,10.56 0 0 1 -0.62,-4.24c0.36,-4.76 4.35,-8.32 8,-11.34l11,-9a16.71,16.71 0 0 1 4.94,-3.14c2.54,-0.86 5.32,-0.45 8,-0.45a62.76,62.76 0 0 0 9,-0.93c-0.15,-4.24 8.76,-8 14.1,-7.37c5.65,0.65 11.08,3 16.77,3c5.4,0 11.48,-1.83 15.77,1.44c3.85,2.93 4.17,8.5 4.16,13.33l0.04,16.84c0,4.4 0.08,9.15 2.71,12.69c2.86,3.86 8.33,5.71 10.18,10c2.26,-5.81 5.32,-11.2 10.38,-14.66a20.53,20.53 0 0 1 14.35,-3.32a15.85,15.85 0 0 1 3.26,-4.14c3.59,-3.25 8.08,-5.31 12.49,-7.33c1.45,-0.66 3.11,-1.34 4.59,-0.74a3.08,3.08 0 0 1 1.46,1.22a13.66,13.66 0 0 1 2.16,-2a5,5 0 0 1 2.6,-0.91a1.22,1.22 0 0 1 0.07,-0.17a82.56,82.56 0 0 0 2.84,-10.3a26.37,26.37 0 0 1 -6.33,-12.73a48.7,48.7 0 0 1 -10,-10.85c-1.84,-2.75 -3.44,-5.9 -3.19,-9.2a11,11 0 0 1 2.27,-5.67a10.56,10.56 0 0 1 -0.62,-4.24c0.36,-4.76 4.35,-8.32 8,-11.34l11,-9a16.71,16.71 0 0 1 4.94,-3.14c2.54,-0.86 5.32,-0.45 8,-0.45a62.76,62.76 0 0 0 9,-0.93c-0.15,-4.24 8.76,-8 14.1,-7.37c5.65,0.65 11.08,3 16.77,3c5.4,0 11.48,-1.83 15.77,1.44c3.85,2.93 4.17,8.5 4.16,13.33l0.04,16.81c0,4.4 0.08,9.15 2.71,12.69c3,4.06 8.89,5.88 10.44,10.69c0.9,2.82 0,6 1,8.81a12.55,12.55 0 0 0 3.72,4.88a58.93,58.93 0 0 0 7.15,5.52a12,12 0 0 1 1.89,-3.69a10.56,10.56 0 0 1 -0.62,-4.24c0.36,-4.76 4.35,-8.32 8,-11.34l11,-9a16.71,16.71 0 0 1 4.94,-3.14c2.54,-0.86 5.32,-0.45 8,-0.45c8,0 16.57,-3.64 23.71,0c3,1.53 5.22,4.16 7.39,6.72l9.83,11.65a6.21,6.21 0 0 1 1.58,2.66c0.28,1.42 -0.45,2.83 -0.71,4.25c-0.46,2.6 0.66,5.38 -0.2,7.88a6.13,6.13 0 0 1 -1.48,2.33c-0.34,2.52 0.65,5.18 -0.18,7.58c-1.22,3.54 -5.06,4.49 -8.08,6.17a26.39,26.39 0 0 1 -10.45,20.72a15.41,15.41 0 0 0 -1.18,5.46a10.93,10.93 0 0 0 1.15,4.33a4.72,4.72 0 0 1 2.73,-0.13a7,7 0 0 1 2,1.09l2.69,1.88a3.84,3.84 0 0 1 1.78,-0.37a7.7,7.7 0 0 1 3.26,1.15l13.88,7.43a5.31,5.31 0 0 1 2.42,2a3.51,3.51 0 0 1 -0.09,3c9.41,-0.68 19.77,2.11 24.6,10.12c2.57,4.26 3.21,9.39 3.66,14.35c0.63,6.94 1,13.91 1.35,20.88l1.89,36.64c0.23,4.38 0.45,8.76 0.53,13.15a29.65,29.65 0 0 1 -1.09,10.16c-1.21,3.55 -3.61,6.55 -6,9.47s-5.38,5.93 -8.89,5.08a9.57,9.57 0 0 1 -3.81,-2.36l-8.05,-6.91q-2.37,-2 -4.71,-4.11c-0.07,9.65 -0.29,19.3 -0.79,28.93c-0.16,3 -0.41,6.23 -1.85,8.9a101.86,101.86 0 0 1 4.86,28.34a179.22,179.22 0 0 1 -1.32,23.49q1.26,-2.67 2.53,-5.4c43.44,-92.82 93.55,-226.64 76.49,-320.97z" fill="#f2f2f2" id="svg_25" transform="translate(-79.34 -163.91)"/>
  <path d="m164.89,476l-2.55,9.91c0.5,-0.63 1,-1.25 1.51,-1.87a17.51,17.51 0 0 1 1.42,-7.23c1.07,-2.15 2.85,-3.85 4.33,-5.75a8.33,8.33 0 0 1 -0.67,0.5a11.07,11.07 0 0 0 -3,1.89a6.24,6.24 0 0 0 -1.04,2.55z" fill="#f2f2f2" id="svg_26" transform="translate(-79.34 -163.91)"/>
  <path d="m778.15,521c0.5,0.62 1,1.24 1.51,1.87l-2.55,-9.87a6.24,6.24 0 0 0 -1.08,-2.55a11.07,11.07 0 0 0 -3,-1.89a8.33,8.33 0 0 1 -0.67,-0.5c1.48,1.9 3.26,3.6 4.33,5.75a17.51,17.51 0 0 1 1.46,7.19z" fill="#f2f2f2" id="svg_27" transform="translate(-79.34 -163.91)"/>
  <path d="m935.17,581.44c0.3,-0.27 0.61,-0.53 0.93,-0.77c-0.89,-1.23 -1.75,-2.48 -2.54,-3.78l-0.08,-0.14c0.39,1.24 0.81,2.47 1.28,3.69c0.13,0.34 0.24,0.66 0.41,1z" fill="#f2f2f2" id="svg_28" transform="translate(-79.34 -163.91)"/>
  <path d="m674.48,599.75c0.39,1.24 0.81,2.47 1.28,3.69c0.13,0.34 0.27,0.66 0.41,1c0.3,-0.27 0.61,-0.53 0.93,-0.77c-0.89,-1.23 -1.75,-2.48 -2.54,-3.78l-0.08,-0.14z" fill="#f2f2f2" id="svg_29" transform="translate(-79.34 -163.91)"/>
  <path d="m760.7,406a26.39,26.39 0 0 1 -10.45,20.72a15.41,15.41 0 0 0 -1.18,5.46a10.93,10.93 0 0 0 1.15,4.33a4.72,4.72 0 0 1 2.73,-0.13a7,7 0 0 1 2,1.09l2.69,1.88a3.84,3.84 0 0 1 1.78,-0.37a7.7,7.7 0 0 1 3.26,1.15l13.88,7.43a5.31,5.31 0 0 1 2.42,2a3.51,3.51 0 0 1 -0.09,3a36.49,36.49 0 0 1 8.91,0.44a148.7,148.7 0 0 1 4.15,-16.54a20.59,20.59 0 0 1 -5.1,-13.72c0,-2.56 0.41,-5.13 0.07,-7.66s-1.65,-5.15 -4,-6.13c-1.43,-0.59 -3.1,-0.52 -4.41,-1.34c-1.69,-1 -2.26,-3.22 -2.56,-5.19c-0.87,-5.78 -0.62,-11.72 -2,-17.39a28.78,28.78 0 0 0 -2.5,-6.48a25.14,25.14 0 0 1 -0.76,3.43c-0.46,2.6 0.66,5.38 -0.2,7.88a6.13,6.13 0 0 1 -1.48,2.33c-0.34,2.52 0.65,5.18 -0.18,7.58c-1.27,3.58 -5.11,4.53 -8.13,6.23z" fill="#f2f2f2" id="svg_30" transform="translate(-79.34 -163.91)"/>
  <path d="m815.29,488.32c-2.36,16.14 -4.64,33 -0.61,48.64a5.92,5.92 0 0 1 1.53,-2.5c2.66,-3.27 3.71,-7.53 4.5,-11.67c4.86,-25.58 2.52,-51.77 1.42,-77.89l-2.13,2.46a11.82,11.82 0 0 0 -2,2.64a10.22,10.22 0 0 0 -0.81,3.76a47,47 0 0 0 0.31,9.18a49.58,49.58 0 0 1 -1.19,20.15a38.19,38.19 0 0 0 -1.02,5.23z" fill="#f2f2f2" id="svg_31" transform="translate(-79.34 -163.91)"/>
  <path d="m728.730004,413.229996a6.2,6.2 0 0 1 -5.11,1.31a9.57,9.57 0 0 1 -3.81,-2.36l-8,-6.91q-2.37,-2 -4.71,-4.11c-0.07,9.65 -0.29,19.3 -0.79,28.93c-0.16,3 -0.41,6.23 -1.85,8.9a101.86,101.86 0 0 1 4.86,28.34c0.24,9.1 -0.74,18.19 -1.73,27.25q-2.37,22 -4.76,44a123.92,123.92 0 0 1 -2.87,18.11c-1.38,5.31 -3.45,10.41 -5.25,15.6l10.21,-0.11l13,-0.14l1.6,0l22,-0.24a0.15,0.15 0 0 0 0,-0.07c1.7,-9.62 6.28,-18.94 5.37,-28.68c-0.6,-6.5 -3.62,-12.49 -5.7,-18.68c-9.08,-27.06 0,-57.23 -6.57,-85c-1.51,-6.37 -3.79,-13.27 -1,-19.22l-4.17,-1.27c0.57,-1.32 1.15,-2.63 1.73,-4a10.26,10.26 0 0 1 -2.45,-1.65z" fill="#f2f2f2" id="svg_32"/>
  <path d="m719.83,710.37q0.06,10.14 0.13,20.28l0.44,0l-0.57,-20.28z" fill="#f2f2f2" id="svg_33" transform="translate(-79.34 -163.91)"/>
  <path d="m978.83,687.37q0.1,15.32 0.2,30.61l0.66,-0.39q-0.44,-15.11 -0.86,-30.22z" fill="#f2f2f2" id="svg_34" transform="translate(-79.34 -163.91)"/>
  <path d="m954.59,371.22l-1.69,0.34a22.08,22.08 0 0 0 3.14,3.05a16.8,16.8 0 0 1 -1.45,-3.39z" fill="#f2f2f2" id="svg_35" transform="translate(-79.34 -163.91)"/>
  <path d="m860.83,650.37l0.3,44.06a51.92,51.92 0 0 1 -0.67,10.65c-0.6,2.94 -1.7,5.75 -2.33,8.68c-0.89,4.19 -0.78,8.53 -0.74,12.82c0,0.86 0,1.72 0,2.58l5.67,-0.06q-1.11,-39.36 -2.23,-78.73z" fill="#f2f2f2" id="svg_36" transform="translate(-79.34 -163.91)"/>
  <path d="m1037.15,498c0.5,0.62 1,1.24 1.51,1.87l-2.55,-9.91a6.24,6.24 0 0 0 -1.08,-2.55a11.07,11.07 0 0 0 -3,-1.89a8.33,8.33 0 0 1 -0.67,-0.5c1.48,1.9 3.26,3.6 4.33,5.75a17.51,17.51 0 0 1 1.46,7.23z" fill="#f2f2f2" id="svg_37" transform="translate(-79.34 -163.91)"/>
  <path d="m901.7,346a26.39,26.39 0 0 1 -10.45,20.72a15.41,15.41 0 0 0 -1.18,5.46a10.93,10.93 0 0 0 1.15,4.33a4.72,4.72 0 0 1 2.73,-0.13a7,7 0 0 1 2,1.09l2.69,1.88a3.84,3.84 0 0 1 1.78,-0.37a7.7,7.7 0 0 1 3.26,1.15l13.88,7.43a5.31,5.31 0 0 1 2.42,2a3.51,3.51 0 0 1 -0.09,3c9.41,-0.68 19.77,2.11 24.6,10.12c2.57,4.26 3.21,9.39 3.66,14.35c0.08,0.91 0.15,1.82 0.22,2.74c3.43,-2.81 7.53,-4.71 11.57,-6.56c1.45,-0.66 3.11,-1.34 4.59,-0.74a3.08,3.08 0 0 1 1.46,1.22a13.66,13.66 0 0 1 2.16,-2a5,5 0 0 1 2.6,-0.91a1.22,1.22 0 0 1 0.07,-0.17a82.56,82.56 0 0 0 2.84,-10.3a26.37,26.37 0 0 1 -6.33,-12.73a49.3,49.3 0 0 1 -8.14,-8.32c-7.47,2.43 -15.59,4.1 -22.29,0.36c-5.84,-3.26 -9,-10.18 -9,-16.87c0,-2.56 0.41,-5.13 0.07,-7.66s-1.65,-5.15 -4,-6.13c-1.43,-0.59 -3.1,-0.52 -4.41,-1.34c-1.69,-1 -2.26,-3.22 -2.56,-5.19c-0.87,-5.78 -0.62,-11.72 -2,-17.39a28.78,28.78 0 0 0 -2.5,-6.48a25.14,25.14 0 0 1 -0.76,3.43c-0.46,2.6 0.66,5.38 -0.2,7.88a6.13,6.13 0 0 1 -1.48,2.33c-0.34,2.52 0.65,5.18 -0.18,7.58c-1.32,3.57 -5.16,4.52 -8.18,6.22z" fill="#f2f2f2" id="svg_38" transform="translate(-79.34 -163.91)"/>
  <path d="m740,712.13l0,24l-515,0l0,-24a7,7 0 0 1 7,-7l501,0a7,7 0 0 1 7,7z" fill="#3f3d56" id="svg_39" transform="translate(-79.34 -163.91)"/>
  <path d="m544.77,355.43c3.82,3.93 7.49,8.47 8.21,13.9c-8.14,2.13 -16.47,-1.87 -24.08,-5.44a305.64,305.64 0 0 0 -74,-23.87c-2,-0.37 -4.14,-0.78 -5.65,-2.16c-2.85,-2.61 -2.33,-9.19 0.32,-11.9c2.86,-2.92 8.15,-2.5 12,-2.71a109.55,109.55 0 0 1 83.24,32.18l-0.04,0z" fill="#192534" id="svg_40" transform="translate(-79.34 -163.91)"/>
  <path d="m714.34,736.09l-204.55,0a110.56,110.56 0 0 1 -6.42,-19.32c-0.52,-2.06 -1,-4.14 -1.48,-6.21c-0.42,-1.82 -0.82,-3.65 -1.2,-5.47q-1.74,-8.21 -3,-16.49q-1.21,-7.8 -2,-15.65q-0.78,-7.51 -1.21,-15.07c0,-0.14 0,-0.28 0,-0.43c-0.12,-2.39 0,-5 1.64,-6.69c1.44,-1.45 3.64,-1.77 5.69,-1.91c17,-1.16 33.52,5 50.48,4.09c4.6,-0.27 8.3,-1 12.58,-0.12a16.05,16.05 0 0 1 2,0.51c1,0.31 1.93,0.64 2.88,1c6.51,2.33 12.58,5.27 19.58,6.58c11.92,2.25 24.15,1.81 36.25,2.68c1,0.06 2,0.14 3,0.24c1.23,0.1 2.46,0.23 3.68,0.38a137.92,137.92 0 0 1 30.34,7.6c5.28,1.91 10.48,4.07 15.61,6.36c1.47,0.66 2.93,1.32 4.39,2c2.6,1.21 5.24,2.49 7.82,3.88c1,0.53 2,1.07 2.94,1.64c7.77,4.51 14.79,10.11 18.88,17.71c0.31,0.56 0.59,1.13 0.86,1.71s0.47,1.07 0.69,1.62c3.57,9.27 2.32,19.27 0.55,29.36z" fill="#202f42" id="svg_41" transform="translate(-79.34 -163.91)"/>
  <path d="m714.34,736.09l-204.55,0a110.56,110.56 0 0 1 -6.42,-19.32c-0.52,-2.06 -1,-4.14 -1.48,-6.21c-0.42,-1.82 -0.82,-3.65 -1.2,-5.47q-1.74,-8.21 -3,-16.49q-1.21,-7.8 -2,-15.65q-0.78,-7.51 -1.21,-15.07c0,-0.14 0,-0.28 0,-0.43c-0.12,-2.39 0,-5 1.64,-6.69c1.44,-1.45 3.64,-1.77 5.69,-1.91c17,-1.16 33.52,5 50.48,4.09c4.6,-0.27 8.3,-1 12.58,-0.12a16.05,16.05 0 0 1 2,0.51c1,0.31 1.93,0.64 2.88,1c6.51,2.33 12.58,5.27 19.58,6.58c11.92,2.25 24.15,1.81 36.25,2.68c1,0.06 2,0.14 3,0.24c1.23,0.1 2.46,0.23 3.68,0.38a137.92,137.92 0 0 1 30.34,7.6c5.28,1.91 10.48,4.07 15.61,6.36c1.47,0.66 2.93,1.32 4.39,2c2.6,1.21 5.24,2.49 7.82,3.88c1,0.53 2,1.07 2.94,1.64c7.77,4.51 14.79,10.11 18.88,17.71c0.31,0.56 0.59,1.13 0.86,1.71s0.47,1.07 0.69,1.62c3.57,9.27 2.32,19.27 0.55,29.36z" id="svg_42" opacity="0.1" transform="translate(-79.34 -163.91)"/>
  <path d="m527.65,736.09l-230.55,0c-5.18,-5.7 -8.57,-13.13 -7.73,-20.7a65.79,65.79 0 0 1 1.58,-9.34c0.08,-0.33 0.17,-0.65 0.26,-1a23.23,23.23 0 0 1 10.24,-14c9.08,-5.83 20,-8.11 30,-11.89c5.37,-2 10.55,-4.53 15.92,-6.54a128.17,128.17 0 0 1 23.81,-6.08c0.9,-0.15 1.81,-0.3 2.71,-0.43s1.85,-0.29 2.78,-0.42c5,-0.72 10,-1.31 15.05,-1.89c11,-1.29 22.17,-2.57 33.24,-1.59a113.64,113.64 0 0 1 25.94,5.82c6.32,2.11 12.56,4.56 18.76,7c9.67,3.82 19.42,7.73 28.05,13.46c0.75,0.5 1.48,1 2.21,1.53a66.39,66.39 0 0 1 14.92,15a70.9,70.9 0 0 1 6.31,10.48a72.72,72.72 0 0 1 6.5,20.59z" fill="#202f42" id="svg_43" transform="translate(-79.34 -163.91)"/>
  <path d="m382.570004,169.019996c-3.78,8.29 -10.19,15.8 -18.78,18.85c-4.57,1.62 -9.5,1.91 -14.16,3.24s-9.36,4.08 -11,8.63a20.19,20.19 0 0 0 -0.86,6.15c-0.71,19.55 -1.29,39.87 6.52,57.81c6.75,15.48 19.12,27.71 31.34,39.37c14.3,13.64 29.44,27.47 48.25,33.57c11,3.55 23.95,3.94 33.05,-3.13c3.74,-2.91 6.52,-6.84 9.25,-10.72c6,-8.55 12.1,-17.22 15.88,-27c7.75,-20 5.14,-42.28 2.41,-63.53a5.18,5.18 0 0 0 -1.34,-3.41c-1.06,-0.89 -2.61,-0.77 -4,-0.69c-9.73,0.58 -20.35,-4.41 -23.61,-13.59c-1.4,-4 -1.36,-8.28 -1.29,-12.48l0.38,-24.22c0,-2.61 0.07,-5.31 -0.91,-7.74c-1.71,-4.22 -6,-6.69 -10.11,-8.73a250.73,250.73 0 0 0 -41.28,-16.26c-6.22,-1.83 -10.95,-4.88 -13.72,1.8c-2.93,6.95 -2.8,15.01 -6.02,22.08z" fill="#cd853f" id="svg_44"/>
  <circle cx="448.16" cy="114.69" fill="#cd853f" id="svg_46" r="74"/>
  <path d="m455.190004,230.709996l-8.27,20.53c-1.87,4.64 -3.77,9.33 -6.65,13.42c-7.95,11.27 -23.61,16.43 -36.67,12.09c-12.33,-4.07 -23.27,-15.61 -36,-12.84c-6.6,1.44 -11.86,6.74 -14.8,12.82s-3.88,12.92 -4.51,19.65a249.46,249.46 0 0 0 8.75,92.56c0.9,3.1 2,6.35 4.39,8.49c2.92,2.56 7.11,2.94 11,3.16q27,1.61 54.1,1.9c11.1,0.13 22.25,0.09 33.21,-1.63s21.45,-5 32.26,-7.16c10.11,-2 20.46,-2.93 30.34,-5.84c1.61,-0.47 3.31,-1.07 4.3,-2.41a7.18,7.18 0 0 0 1,-4.25c0,-5.76 -1.79,-11.36 -3.73,-16.78c-5,-13.83 -10.84,-27.44 -13.62,-41.87c-3.83,-19.85 -1.58,-40.3 -2,-60.52c-0.14,-7.24 -0.64,-14.6 -3.13,-21.41s-7.2,-13.07 -13.83,-16c-11.43,-5.09 -30.67,-7.37 -36.14,6.09z" fill="#888888" id="svg_47"/>
  <path d="m496.5,491.77c-5.28,-4.48 -5,-12.47 -5.63,-19.37c-1.15,-12.94 -6.78,-25 -12.32,-36.76l-16.55,-35.16c-6.92,-14.66 -14,-31.35 -8.29,-46.54c1.91,-5.12 5.18,-9.68 6.86,-14.88s1.34,-11.7 -2.92,-15.13c-5.42,-4.36 -13.43,-1.39 -19.56,1.92a299.45,299.45 0 0 0 -32.53,20.45c-2.82,2 -5.78,4.37 -6.7,7.73c-0.57,2.09 -0.27,4.38 -1.07,6.4c-1.56,4 -6.42,5.2 -10.57,6.14a129.07,129.07 0 0 0 -82.3,60.4a71.69,71.69 0 0 0 -7,15.63c-2,7 -2.52,14.27 -3,21.5q-1.92,27.9 -3.7,55.77c-0.53,8.23 -1.05,16.66 1.2,24.59c1.45,5.1 4,9.87 5.08,15.07c2.19,10.81 -2.43,21.85 -8.2,31.25s-12.87,18.22 -16.49,28.59a67.18,67.18 0 0 0 -3.24,20.42a117.2,117.2 0 0 0 18.62,66.1c12.29,1.81 21.49,-10.41 32.78,-15.6c16.55,-7.59 37.45,-1.51 53,-10.89c3.8,-2.29 7.09,-5.41 11.11,-7.3c3.65,-1.71 7.7,-2.32 11.69,-2.9c14.74,-2.13 29.67,-4.1 44.48,-2.5c21,2.27 42.71,11.6 62.46,4.07c4.87,-1.86 9.33,-4.67 14.22,-6.48c18,-6.67 38,1.3 57.17,-0.17c-3,-0.16 -4.34,-3.56 -4.9,-6.55q-1.89,-9.95 -3.34,-20c-0.85,-5.81 -1.58,-11.78 -0.25,-17.49c1.22,-5.3 4.14,-10 6.59,-14.86c7.73,-15.3 11,-32.46 17.63,-48.28c3.15,-7.54 7,-14.74 10.74,-22a453.7,453.7 0 0 0 35.07,-93.56c-8.73,-15.67 -16.64,-32 -25.37,-47.66c-2.53,-4.54 -5.13,-9.16 -9,-12.67c-5.54,-5.08 -13.05,-7.29 -20.28,-9.34c-6.21,-1.77 -12.51,-3.55 -19,-3.56s-24.75,-6.79 -29.13,-2.06c-4.52,4.88 5.65,20.64 5.42,27.28s0.5,13.36 -0.6,19.92c-1.6,9.57 -7,18.1 -9.45,27.48a135,135 0 0 0 -2.23,13.44a152.7,152.7 0 0 1 -7.89,29.57a20,20 0 0 1 -2.89,5.62c-4.74,5.8 -12.36,3.6 -19.72,2.37z" fill="#192534" id="svg_48" transform="translate(-79.34 -163.91)"/>
  <path d="m564.080004,433.229996c1.9,2.32 4.5,3.91 6.85,5.76c9.25,7.25 14.69,18.28 22.86,26.73c4.12,4.27 8.91,7.84 13.3,11.83c10.21,9.3 18.12,20.79 25.94,32.17c2,2.9 4,5.87 5,9.24c1.75,5.75 0.33,12.16 -2.86,17.26s-8,9 -13.19,12.06a63.9,63.9 0 0 1 -8.45,4.2c-6,2.44 -11.72,-4.17 -8.34,-9.69a116.27,116.27 0 0 0 5.88,-10.7a15.24,15.24 0 0 0 1.9,-6.62c-0.08,-4.08 -3.3,-7.54 -7,-9.25s-7.87,-2 -11.92,-2.5a133.18,133.18 0 0 1 -63.24,-25.16c-10.5,-7.8 -20.62,-19.23 -18.95,-32.2c1.24,-9.68 8.9,-17.38 17.31,-22.34a64.33,64.33 0 0 1 22.16,-8c2.2,-0.36 7.72,-1.87 9.69,-0.35c1.75,1.3 1.42,5.56 3.06,7.56z" fill="#cd853f" id="svg_49"/>
  <path d="m480.710004,72.879996c-10,10.24 -26.06,10.67 -40.38,10.42l0.47,-5.61l-20.14,7.22a54.1,54.1 0 0 0 13.22,-14.14c-2.61,-2.29 -6.7,-2.22 -9.8,-0.64s-5.38,4.37 -7.33,7.25a66.1,66.1 0 0 0 -7.32,58.81c-4,2.22 -9.1,1.57 -12.94,-0.85s-6.52,-6.36 -8.34,-10.52c-1.19,-2.72 -2.43,-5.94 -5.27,-6.79c-2.38,-0.71 -5,0.74 -6.32,2.85a12.19,12.19 0 0 0 -1.37,7.2c0.37,5.82 4.62,11.34 5.47,17.1s9.45,10.24 5,14c-1.28,1.09 -14.41,4.06 -16.07,3.8c-2.25,-0.35 -3.74,-2.52 -4.68,-4.59c-4.48,-9.84 -2.87,-21.34 -5.52,-31.82c-2.13,-8.43 -6.93,-15.91 -11.66,-23.21a34,34 0 0 0 -4.47,-5.91c-1.57,-1.54 -3.51,-2.87 -4.27,-4.93s0.64,-5 2.81,-4.67a91,91 0 0 0 -11.27,-9.27q5.94,-7.52 11.62,-15.23c1.3,-1.76 2.65,-4 1.7,-6a6.23,6.23 0 0 0 -2.27,-2.2l-10.34,-7c-0.23,-4.75 9.44,-3 10.93,-7.49a6.3,6.3 0 0 0 -0.26,-3.58l-3.52,-12.84l13.37,6.06c1.62,0.74 3.35,1.49 5.12,1.23c3.53,-0.51 5.23,-4.69 5.41,-8.26s-0.39,-7.41 1.38,-10.52q9.08,-0.36 18.15,0.13a11.92,11.92 0 0 0 -2.25,-8.58l44.68,-2.48c7.63,-0.42 15.47,-0.81 22.72,1.59c2.46,0.82 4.94,2 7.52,1.71s5.18,-2.67 4.44,-5.15a81.1,81.1 0 0 1 18.19,14a18.52,18.52 0 0 0 5.17,4.27c2,0.94 4.74,0.9 6.26,-0.76c1.22,-1.33 1.83,-3.65 3.63,-3.73c1.12,0 2,0.88 2.71,1.77a44.1,44.1 0 0 1 6.18,10.73a39.31,39.31 0 0 0 9.35,-2.46c-3.12,2.63 -3.2,7.53 -1.71,11.33s4.19,7 6,10.64a43.43,43.43 0 0 1 3.59,12.33c0.91,5.34 0.92,12.07 -3.82,14.69c-4.12,2.28 -9.23,-0.15 -13,-3c-10.38,-7.78 -12.36,-5.5 -20.77,3.1z" fill="#000000" id="svg_51"/>
  <path d="m533.000004,545.339996l69.29,-6.25a10.8,10.8 0 0 0 9.82,-11.33l-0.05,-1a10.79,10.79 0 0 0 -7.68,-9.78l-11.2,-3.36a10.89,10.89 0 0 0 -3.11,-0.46l-25.41,0a11.17,11.17 0 0 0 -2.07,0.2c-5.37,1.05 -30.08,5.91 -31,6.8c-0.49,0.5 -3.43,2.7 -6.27,4.8a10.79,10.79 0 0 0 -4.09,11.16l0.21,0.92a10.8,10.8 0 0 0 11.56,8.3z" fill="#888888" id="svg_52"/>
  <path d="m499.160004,523.679996l28,-8l52,-7s33,-9 36,19l-2.8,4.74s2.8,-17.74 -31.2,-12.74c0,0 -61.13,-2.05 -58.56,22c0,-0.02 -21.44,-4 -23.44,-18z" fill="#000000" id="svg_53"/>
  <ellipse cx="537.16" cy="505.69" fill="#6c63ff" id="svg_54" rx="7" ry="1"/>
  <rect fill="#000000" height="9" id="svg_55" width="5" x="594.66" y="506.19"/>
  <rect fill="#000000" height="9" id="svg_56" width="5" x="534.66" y="506.19"/>
  <ellipse cx="406.119995" cy="1564.050022" fill="#6c63ff" id="svg_57" rx="2.5" ry="8" transform="rotate(-69.04 136.74 2460.01)"/>
  <path d="m313.190004,522.209996c2.14,2.23 4.32,4.5 7.07,5.9a28,28 0 0 0 8.58,2.27q45.44,7 90.56,15.66c8.47,1.64 17,3.34 25,6.63c4.08,1.69 8,3.79 12,5.56c23,10.09 49,9.44 74.09,8.6c4.91,-0.16 10,-0.36 14.43,-2.41c3.31,-1.51 6.34,-4.38 6.64,-8c0.52,-6.29 -6.63,-10 -12.34,-12.71c-13.63,-6.43 -25.51,-16.89 -32.69,-30.15c-1.28,-2.34 -2.32,-5.49 -0.52,-7.47c1.35,-1.48 3.64,-1.49 5.65,-1.41q12.6,0.49 25.2,-0.26c4.35,-0.27 10.11,-2.33 9.42,-6.62c-0.3,-1.84 -1.82,-3.21 -3.26,-4.41c-7.57,-6.36 -16.16,-12.91 -26.05,-12.72c-5.19,0.1 -10.14,2.08 -15,3.75c-26.18,8.88 -54.37,9.37 -82,9.19c-6.76,0 -13.57,-0.13 -20.19,-1.51a105.57,105.57 0 0 1 -15.93,-5.13c-16.76,-6.39 -33.59,-12.82 -49.11,-21.79c-6.17,-3.56 -13.05,-7.68 -19.93,-5.85a20.75,20.75 0 0 0 -8.2,5c-8.19,7.4 -15.1,16.46 -12.77,27.82c2.37,11.94 11.21,21.56 19.35,30.06z" fill="#cd853f" id="svg_58"/>
  <path d="m388.07,493c2.58,8.35 4.09,17.19 8.53,24.72c4.71,8 12.55,14.2 15.27,23.07c1.92,6.28 1,13 1,19.59c0,7.47 1.41,15.17 5.54,21.39c2.08,3.14 4.79,5.8 7.16,8.73c10.51,13 13.75,30.36 15.06,47c-10,-5.66 -21.7,-11.5 -32.53,-7.61c-4.38,1.58 -8.08,4.62 -11.52,7.77a147.79,147.79 0 0 0 -18.23,20c-2.86,3.77 -5.67,8.38 -4.43,12.94c-5.92,-8.6 -11.92,-17.26 -16.52,-26.72c-3.26,-6.76 -5.79,-13.9 -9.7,-20.32c-4.92,-8.07 -11.85,-14.7 -17.68,-22.14c-13.1,-16.72 -20.45,-37.42 -24.02,-58.31s-3.72,-42.29 -3.61,-63.53c0,-7 0.15,-14.28 3.1,-20.65c1.75,-3.79 4.42,-7.07 7.07,-10.3c3.36,-4.11 6.82,-8.3 11.39,-11c14.54,-8.56 30.14,5.63 39.86,15.34a97.71,97.71 0 0 1 24.26,40.03z" fill="#192534" id="svg_59" transform="translate(-79.34 -163.91)"/>
  <path d="m638.73,445a13.67,13.67 0 0 1 3.2,4.37c0.76,2 0.56,4.2 0.4,6.33a131.35,131.35 0 0 0 2.67,37.86c1.63,7.51 3.69,16.2 -1.1,22.21a18.47,18.47 0 0 0 -2,2.55c-2.22,4.16 1.88,8.69 5,12.26c9.48,11 11,28.21 3.65,40.76c-1.39,2.39 -3.09,4.65 -3.87,7.29a23.08,23.08 0 0 0 -0.62,6.64l0.04,16.73c-10.51,-1.41 -22.26,-2.51 -30.71,3.9c-7.13,5.4 -9.95,14.8 -16,21.34c-5.87,6.3 -15,10.36 -17.29,18.66l0.12,-34.57a79.83,79.83 0 0 0 -0.74,-13.74c-1.2,-7.15 -4.31,-13.84 -6.13,-20.86c-2.38,-9.18 -2.53,-18.77 -2.67,-28.26c-0.23,-15.67 -0.45,-31.51 2.8,-46.84c1.33,-6.24 3.22,-12.35 4.68,-18.56c2.65,-11.2 4,-22.86 8.65,-33.38s13.78,-20.06 25.24,-21.19c12.07,-1.21 17.19,8.67 24.68,16.5z" fill="#192534" id="svg_60" transform="translate(-79.34 -163.91)"/>
  <ellipse cx="359.309998" cy="920.85001" fill="#fbbebe" id="svg_61" rx="7" ry="13" transform="rotate(-30 41.62 1183.61)"/>
  <ellipse cx="359.309998" cy="920.85001" fill="black" id="svg_62" opacity="0.1" rx="7" ry="13" transform="rotate(-30 41.62 1183.61)"/>
 </g>
</svg>